<?xml version="1.0" standalone="no"?>
<!DOCTYPE svg PUBLIC "-//W3C//DTD SVG 1.1//EN" "http://www.w3.org/Graphics/SVG/1.1/DTD/svg11.dtd" >
<svg xmlns="http://www.w3.org/2000/svg">
<metadata>
This is a custom SVG webfont generated by Font Squirrel.
Copyright   : Chris Winter 2009
Foundry     : Chris Winter
</metadata>
<defs>
<font id="webfontKn5NMU9j" horiz-adv-x="1024" >
<font-face units-per-em="2048" ascent="1536" descent="-512" />
<missing-glyph horiz-adv-x="500" />
<glyph unicode=" " />
<glyph unicode="!" horiz-adv-x="329" d="M53 600q-10 86 -14 174t-4 170v61q0 30 2 56q4 84 10 136t16 81q8 27 23 37q10 8 33 8q20 0 28 -2q20 -6 31 -29q12 -25 12 -86q0 -31 -3 -72.5t-11 -95.5q-12 -84 -12 -166q0 -84 9 -163.5t21.5 -147t24.5 -119.5l19 -77q10 -35 10 -64q0 -16 -2 -20q-2 -6 -6 -11 q-25 -18 -45 -18q-25 0 -43 16q-23 18 -43 64q-18 43 -32 113.5t-24 154.5zM96 -10q0 14 8.5 28.5t20.5 26.5l-4 4l4 -4q31 25 65 25q10 0 17 -2q27 -4 49 -33q25 -29 25 -53q0 -18 -11 -27q-18 -16 -41.5 -27.5t-46.5 -11.5q-43 0 -71 37q-15 17 -15 37z" />
<glyph unicode="&#x22;" horiz-adv-x="718" d="M51 717q-14 10 -18 21.5t-4 27.5t4 33.5t10 38.5q10 37 23.5 66.5t35.5 64.5q14 23 28.5 53.5t33.5 58.5q18 29 41 47q25 18 53 19q18 0 29 -4h2q25 -6 37 -21q12 -16 12 -39q0 -16 -6 -34.5t-21 -36.5q-20 -25 -44 -63l-48 -79l-42 -74q-19 -34 -30 -48q-27 -43 -63 -43 q-19 0 -33 12zM518 1163q16 25 43 45q27 16 53 17q14 0 23 -2q29 -10 37 -21q10 -14 10 -31q0 -31 -22 -69q-10 -20 -22 -38l-22 -34l-47 -65l-59 -84l-55 -82q-27 -39 -37 -60q-23 -41 -48.5 -58t-43.5 -17q-14 0 -25 10q-10 10 -10 33q0 14 6 32q12 45 25.5 83t31 75 t39 75t51.5 83q16 23 32.5 52t39.5 56z" />
<glyph unicode="$" horiz-adv-x="970" d="M555 -6q0 -2 1 -19.5t5 -44.5l6 2l-6 -2q4 -27 11.5 -55.5t17.5 -50.5q12 -25 12 -47q0 -10 -4 -20.5t-8 -18.5q-12 -14 -31 -14h-4q-23 2 -42 9t-38 31q-20 25 -35.5 75t-25.5 141v10h-13q-35 0 -88 5t-108 19q-53 12 -99.5 36t-68.5 59q-18 27 -19 55q0 27 12.5 50.5 t28.5 41.5t33 30.5t25 16.5q8 6 24 6q12 0 21 -4q8 -6 8 -16q0 -2 -1 -5t-1 -8q-6 -20 -11 -41.5t-5 -41.5q0 -16 6 -35q10 -18 30 -21q29 -8 76 -16t98 -8h19q8 0 18 2h11v10q4 41 9 106.5t9 128.5q2 33 3 61t3 48l3 34q1 11 1 13v8l-6 4q0 2 -2 2q-6 0 -8 2l-49 28 q-35 19 -74 48q-41 29 -78 59.5t-53 59.5q-25 39 -25 74q0 37 25 67q23 27 70 52q31 16 65.5 28.5t63.5 24.5q16 4 29.5 9t25.5 9q10 4 18.5 8.5t14.5 8.5l6 2v6q4 35 5 64.5t5 56.5q2 23 10 41q6 14 15 20q12 6 24 11t25 5q12 0 26 -8q12 -6 25 -28q14 -23 18 -39.5 t4 -30.5q0 -12 -2 -21.5t-2 -17.5l-2 -16l17 4q27 4 62.5 10t74.5 6t77 -8t66 -29v-2q33 -23 41 -37q10 -12 11 -24q0 -10 -5 -17l-8 -12h-2q-4 -4 -5 -7t-5 -5q-6 -6 -18 -6q-8 0 -20.5 2t-31.5 12q-43 16 -92 16q-47 0 -91 -10t-75 -26l-6 -2l-2 -7q-4 -39 -7 -84l-6 -90 q-3 -45 -5 -86t-2 -69v-19v-6l6 -4l59 -45q37 -29 77 -65.5t77 -80t55 -88.5q14 -31 14 -59q0 -29 -12 -53.5t-33 -44.5q-18 -20 -40.5 -33.5t-39.5 -20.5q-23 -10 -50 -19l-52 -17l-46.5 -13.5t-29.5 -5.5l-12 -2zM455 868l-17 -4q-29 -10 -56.5 -18t-49.5 -19 q-10 -4 -20.5 -9t-18.5 -11q-6 -4 -12 -12l-5 -9q-2 -4 -2 -8q2 -10 6.5 -16l10.5 -14q18 -23 54 -47.5t81 -51.5l16 -10l2 20v27q0 23 2 53q2 31 3.5 63t3.5 48zM551 137l8 2l8 4q68 23 111 47q10 8 19.5 14.5t17.5 14.5q12 16 14 27v6l2 6h-2q0 4 -2 9t-4 9q-10 20 -32 45 l-44 46q-10 10 -20.5 19t-18.5 17q-6 4 -12 11q-2 2 -4 2v2l-17 14l-4 -22l-4 -21q-4 -20 -7 -54t-6 -77t-3 -88v-16v-17z" />
<glyph unicode="'" horiz-adv-x="294" d="M25 803q0 35 16 82t39 94t46 87l34 56q23 33 55 33q37 -4 53 -39q4 -12 4 -24q0 -23 -10 -53.5t-24 -59.5l-27 -51q-12 -23 -23 -39l-4 -6q-6 -14 -20 -42t-31 -57q-16 -31 -35 -51q-4 -6 -14 -16l-12 -8q-6 -2 -17 -2q-8 0 -10 2q-10 10 -14 26l-6 -2l6 2q-6 20 -6 66v2 z" />
<glyph unicode="(" horiz-adv-x="432" d="M162 39q-78 123 -107.5 235.5t-29.5 212.5q0 90 17 168t42 141.5t50 109.5l42 75l37 67q18 32 39 56q23 29 39 39q18 12 39 12q20 0 43 -14q14 -8 22 -23q6 -10 6 -22q0 -20 -12 -45t-33 -52q-18 -29 -40.5 -57.5t-41.5 -56.5q-41 -66 -73.5 -148t-46.5 -168 q-8 -41 -9 -96q0 -78 17.5 -157.5t52.5 -151.5q23 -49 52.5 -90t58.5 -76t46 -64.5t19 -54.5v-2q0 -14 -8 -22q-6 -6 -21 -9q-14 0 -35.5 10.5t-47.5 32.5q-27 23 -56.5 60t-60.5 90z" />
<glyph unicode=")" horiz-adv-x="417" d="M393 500q0 -96 -19.5 -178t-46 -146.5t-55 -113t-47.5 -74.5q-23 -39 -44 -65.5t-38 -43.5q-16 -16 -30.5 -22.5t-24.5 -6.5q-16 0 -27 9q-14 8 -30 28q-10 10 -11 25q0 20 19 51q29 49 81 121t93 176q29 59 40 119.5t11 120.5q0 96 -23.5 181t-54.5 155l-30 64l-27 54 l-23.5 39.5t-13.5 24.5q-8 16 -20.5 35.5t-22.5 40.5q-10 20 -17 38.5t-7 32.5q0 10 6 21q8 8 28 14q16 4 28.5 6t23.5 2q25 0 39 -12q16 -10 33.5 -34.5t39.5 -71.5q23 -45 50.5 -112t62.5 -165q31 -86 44 -163.5t13 -149.5z" />
<glyph unicode="*" horiz-adv-x="890" d="M539 1040q43 14 82 29q35 10 68.5 22.5l53.5 20.5q16 8 37 8q23 0 43.5 -9t36.5 -21q12 -10 12 -27q0 -25 -26 -49l-46 -41l-67 -58q-16 -16 -32.5 -28.5t-26.5 -22.5q-8 -8 -21 -16l-4 -4q0 -2 -2 -2l-12 -11l12 -8l18 -13l40 -31l46 -35l40 -29l26 -22q14 -11 25 -25 q27 -31 26 -58q0 -16 -12 -28q-20 -20 -41 -21q-23 0 -51 17l-26 16q-13 8 -27 18l-46 32l-53 38q-12 10 -23 17.5l-20 13.5q-6 2 -12 8q-2 2 -4 2l-2 2l-19 12v-22q-2 -8 -2 -19v-45v-39q0 -20 5 -37v-12q0 -27 -15 -37q-14 -14 -41 -14h-8q-27 0 -41 16q-16 14 -27 50 l-6 26l-16 -22q-23 -39 -45 -56q-27 -16 -55 -16h-11q-29 6 -45 25q-12 20 -12 47q0 10 2 18l4 16q2 2 3 6.5t5 8.5l19 24q16 18 37.5 40l40.5 42l32 33l6 6l7 6l6 6q6 8 6 21q0 10 -6 16q-4 10 -17 11h-6q-4 -2 -10 -4.5l-16 -6.5l-78 -27l-90 -30q-29 -6 -45 -6 q-27 0 -45 12q-16 10 -33 31q-12 14 -12 37v2q-2 16 4 29.5t16 17.5q4 4 31 14q31 10 76 18.5t79 16.5l27 4l-23 17q-53 43 -73.5 78.5t-20.5 60.5q0 16 5.5 26.5t11.5 18.5q14 12 32 12q16 0 35 -9t35 -22q12 -10 29.5 -27.5l34.5 -35.5q8 -8 15 -16.5t11 -12.5q2 -4 8 -10 q2 -2 2 -4l25 -29l-2 39q-2 2 -2 8v23q-2 14 -2 32v33v2v41q4 20 6 27q10 25 45 25q14 0 29.5 -5.5t31.5 -21.5q10 -8 17.5 -20.5t11.5 -26.5q6 -29 6 -55q0 -20 -2 -27v-8v-2l-4 -21z" />
<glyph unicode="+" horiz-adv-x="788" d="M608 492h19q8 0 16 2h8q45 0 74 -19q29 -18 39 -49q4 -6 4 -18q0 -20 -20 -41q-18 -14 -46 -23q-16 -2 -45.5 -3t-68.5 -3q-37 -2 -77 -3t-75 -3l-16 -2l6 -15q12 -37 39 -88t55 -88q18 -25 19 -47q-4 -16 -11 -22q-10 -10 -32 -11h-7q-20 0 -53 23q-43 29 -87 93.5 t-60 139.5l-4 11l-11 -2q-59 -6 -100 -7q-53 0 -82 8.5t-43 20.5q-14 10 -19 23.5t-10 25.5q-2 6 -2 21q-2 16 5.5 28.5t17.5 16.5l8 4q6 0 19 4q35 4 85 8t89 8l14 2l-2 13q-4 18 -6 48t-2 62v2q0 23 1 45.5t3 40.5q4 51 16 72q4 10 15 16q8 6 24 7q31 0 60 -31 q31 -33 32 -80v-47v-46q0 -24 -2 -40v-31q0 -6 -2 -8v-2v-14l15 2h20q33 0 83 -2t97 -2z" />
<glyph unicode="," horiz-adv-x="276" d="M25 -205q-4 10 -6.5 26.5t-2.5 39.5v6q0 33 15.5 81t36.5 95l44 86t31 55q23 35 58 35t51 -37q4 -8 4 -26q0 -23 -9 -53.5t-24 -61.5l-27 -54q-13 -26 -22 -40l-2 -6l-19 -41q-11 -25 -28 -52q-8 -16 -16.5 -29.5t-16.5 -23.5q-4 -6 -7 -10t-7 -8q-10 -6 -12 -6 q-12 -4 -17 -4q-6 0 -10 4q-8 4 -14 24z" />
<glyph unicode="-" horiz-adv-x="731" d="M674 406q20 -16 28 -31q6 -6 8.5 -12.5t2.5 -8.5v-2q0 -4 -4 -12q-8 -8 -29 -14q-10 -2 -25.5 -4.5t-36.5 -2.5q-8 0 -15 1.5t-17 1.5h-25q-37 0 -83 -5l-92 -8q-46 -4 -88 -9t-69 -5q-16 0 -36.5 -1t-42.5 -1q-27 0 -51.5 2t-45.5 10q-23 10 -28 23q-10 12 -13 34v3 q0 27 13 38q12 20 45 27q16 4 33.5 5t33.5 1h2h39q20 0 65.5 1t98.5 2l107 2q53 1 90 1h39v7v-7q29 0 53.5 -10t42.5 -26z" />
<glyph unicode="." horiz-adv-x="210" d="M61 -4q-10 8 -16 23.5t-6 43.5v5q0 27 6 40t16 21q16 14 50 14h4q10 0 21 -3t22 -11q10 -8 17 -19.5t7 -31.5q0 -6 -1 -12.5t-3 -14.5q-6 -27 -13 -41t-15 -22q-12 -10 -29 -11h-17q-10 2 -21.5 5.5t-21.5 13.5z" />
<glyph unicode="0" horiz-adv-x="784" d="M553 811q23 -16 54.5 -53t60.5 -96q29 -57 50 -134t21 -176v-2q-2 -106 -38.5 -176t-94.5 -113q-57 -41 -122.5 -58t-123.5 -19h-8q-57 2 -110.5 18t-96.5 51q-41 35 -66.5 90.5t-25.5 137.5v2v10q0 57 11.5 116.5t32 114t45 101.5t53.5 82l56 68q28 34 54 61 q23 27 47 43q20 14 33 14h2h2q4 0 10.5 -2t12.5 -6q12 -4 25 -14l28 -19q16 -10 32.5 -18.5t32.5 -12.5h2l9 -4zM584 403q0 25 -2 51.5t-7 55.5q-6 55 -22 90t-41 57q-23 23 -50.5 31t-53.5 6h-5h-14q-20 -2 -39 -18q-29 -23 -52.5 -63t-41.5 -87h-2q-23 -66 -35 -121 t-16 -88q-2 -12 -2 -28v-27v-2q0 -68 30 -100q14 -14 35 -25q20 -6 43 -6q37 0 76 13.5t76 29.5q63 29 96 92q27 55 27 137v2z" />
<glyph unicode="1" horiz-adv-x="237" d="M166 799q6 -33 10 -81t6 -114l8.5 -204.5t4.5 -211.5q0 -94 -7 -149q-2 -14 -4 -24.5t-4 -16.5q-2 -4 -2 -6t-2 -2t-2 -2q-16 2 -32.5 9t-30.5 26q-14 16 -25.5 49.5t-15.5 87.5q-2 29 -6.5 79t-8.5 112.5t-7 131t-3 133.5q0 57 3 108.5t11 90.5q6 37 17 57q6 8 12 13 q2 4 8 4h2q20 0 33 -10q21 -17 35 -80z" />
<glyph unicode="2" horiz-adv-x="870" d="M113 858q37 31 88 45q53 16 92 17q55 0 97 -18.5t71 -47.5t43 -62.5t14 -64.5v-10q-4 -35 -7 -68t-26 -88t-74 -142t-149 -229q0 -2 -2 -4q0 -2 -1 -3t-1 -5q0 -6 4 -10t10 -4q2 -2 9 -2q6 0 13 1t17 3q29 4 66 12t72 12q23 4 77 9.5t117 5.5q45 0 90 -4t80 -17 q31 -8 53 -26q18 -18 19 -43v-6q0 -16 -6 -29q-10 -16 -35 -23q-25 -8 -72 -8q-18 0 -37.5 1t-42.5 3h-26q-53 0 -119 -9t-131 -19l-125 -24q-59 -11 -101 -15h-20q-37 0 -63.5 12t-45.5 31q-16 16 -26 37q-4 10 -6 18t-2 14q0 27 28 72l31 43q16 23 35 45q16 20 57 75.5 t84 123.5q23 35 41.5 68.5t34.5 68.5q33 72 33 121q0 16 -3 30.5t-14 24.5q-4 4 -16 8q-6 2 -19 2q-29 0 -65 -12q-37 -10 -68 -31q-16 -6 -30 -6q-27 -2 -52 19q-25 25 -24 49q0 6 4 18q6 23 29 41z" />
<glyph unicode="3" horiz-adv-x="815" d="M289 840q20 6 48 11t69 7v12v-12h14q47 0 92 -10t80 -33t57 -57q10 -18 15.5 -40t5.5 -50q0 -31 -16.5 -63t-37.5 -58q-23 -29 -36 -43q-6 -4 -15 -12l-2 -3l-2 -2l-10 -8l10 -10l2 -2q10 -8 43 -42t68 -87q37 -53 64.5 -118.5t27.5 -135.5t-57 -139 q-43 -51 -108.5 -94.5t-143.5 -75.5q-78 -33 -158 -51.5t-152 -18.5q-29 0 -51 14.5t-39 36.5q-37 47 -37 97q0 16 9 32q8 12 24 19q10 2 27 2q10 0 15 -1t9 -3q10 -8 15 -19q4 -6 4 -14v-2v-8l6 -4q2 0 11.5 -2.5t29.5 -2.5q23 0 59.5 5.5t89.5 23.5q53 16 106.5 43 t100.5 60q23 16 41.5 34.5t32.5 36.5q31 41 31 80q0 41 -20.5 79t-49.5 73t-60.5 63.5t-56.5 46.5q-16 12 -30.5 25.5t-24.5 28.5q-23 27 -22 51q0 23 22 47l78 78q18 20 31 37q8 12 10 16q4 12 4 16q0 6 -2 11q-4 6 -10 10q-4 2 -15 2q-12 0 -27.5 -1t-31.5 -3 q-18 -2 -36.5 -3t-37.5 -1q-35 0 -55 6q-20 2 -33 14q-10 10 -18 26.5t-8 30.5q0 12 6 23q4 8 15.5 16.5t29.5 14.5z" />
<glyph unicode="4" horiz-adv-x="911" d="M809 494q59 4 110.5 9t75.5 5l-2 12l2 -12q6 2 23 2q51 0 76 -12q12 -6 18 -13q6 -10 6 -18q0 -6 -2 -10q-4 -4 -8 -10.5t-14 -12.5q-23 -16 -62 -29.5t-76 -17.5l-89 -12l-126 -19l-134 -20l-113 -17h-7l-4 -6q-16 -27 -21 -60.5t-5 -70.5q0 -39 4 -73.5t6 -57.5v-10 q0 -27 -14 -45q-8 -6 -17.5 -10t-25.5 -4h-7q-25 2 -41 18q-23 23 -32 74q-4 23 -6 49.5t-2 52.5q0 29 1 54.5t3 45.5v13h-13h-12q-61 0 -112.5 12t-86.5 33q-39 18 -55 39q-16 18 -16 35v6q4 20 24 49q29 45 83.5 105.5t115.5 119.5q41 41 69.5 83t47.5 77q10 18 17 33.5 t13 25.5q4 6 7 11l4 8l4 4l4 2v4h2h2q2 0 3 1t5 1q23 0 49 -14q14 -10 27.5 -22.5t23.5 -31.5q8 -10 11 -34q2 -12 3 -25.5t1 -30.5q0 -47 -6 -99t-13 -97q-6 -51 -12 -76l-3 -12q-1 -4 -1 -9q-2 -4 -2 -8l-2 -16h16q8 0 17 2q12 2 45 6l102 10zM389 537q4 25 6 47t2 34v11 q0 2 -1 2t-1 2t-4 6q-2 0 -3 1t-5 1q-8 0 -8 -4q-2 0 -2 -1t-2 -1q-16 -25 -41 -54.5t-51 -54.5l-23 -22q-10 -10 -20 -19l-13 -12q-2 -2 -4 -2v-2l-12 -10l12 -8q10 -10 25.5 -13.5t31.5 -7.5q33 -6 60 -6h12q6 0 8 2q4 0 4 1t2 1l5 8q4 8 6 15q10 33 16 86z" />
<glyph unicode="5" horiz-adv-x="720" d="M670 721v-10q0 -10 -4 -23q-4 -14 -23 -29q-23 -16 -72 -30l-96 -30q-55 -17 -106 -40l-48 -24q-24 -12 -42 -27q-20 -16 -31 -33l-8 -20q-4 -10 -4 -21v-2q0 -20 9 -41.5t25 -44.5q25 -35 58.5 -72.5t72.5 -76.5l79 -76l75 -72q35 -33 52.5 -74t17.5 -81v-3 q0 -61 -39 -112q-23 -27 -56.5 -48.5t-80.5 -37.5t-89.5 -22.5t-83.5 -6.5h-2h-2q-53 0 -98 11.5t-78 29.5q-35 20 -49 41q-16 27 -16 45v2v8v2v2q0 37 13 71t32 58v3q18 25 33 36q4 4 7 6.5t7 4.5l6 2q8 0 14 -2q18 -8 33 -25q16 -20 17 -53q0 -20 -7 -47v-9l-4 -16l23 -10 q25 -8 51 -8q53 0 111 20q53 23 86 58q10 10 11 21t1 17v5v2v2q-2 16 -11.5 31.5t-21.5 29.5q-14 14 -28.5 26.5t-30.5 24.5t-65.5 53t-100.5 101q-51 59 -90 125.5t-37 132.5v2v2v2q0 61 43 117q31 41 80 74.5t108 62.5t124 50.5t124 35.5q10 2 25 2h2h2q33 0 57 -31 q10 -14 16.5 -30.5t8.5 -28.5v-2z" />
<glyph unicode="6" horiz-adv-x="661" d="M475 387l45 -33q23 -16 39 -39q35 -47 41 -106q2 -8 2 -23q0 -33 -8 -57.5t-23 -44.5q-23 -29 -56.5 -48.5t-72.5 -29.5t-77.5 -14t-69.5 -4q-35 0 -81 11t-87 38q-20 14 -37.5 32.5t-30.5 41.5q-27 49 -26 112q0 59 20 123q35 111 97.5 215.5t130.5 188.5 q33 41 64.5 75.5t60.5 59.5q14 12 26 21l23 18q20 12 30 12q2 2 7 2q16 0 27 -8t22 -19q8 -16 12 -22q4 -16 4 -19q0 2 -4 -10q-10 -14 -27 -33q-27 -31 -64.5 -70.5t-68.5 -76.5l-41 -55q-23 -31 -39 -60l-18 -29q-8 -13 -12 -26q-4 -6 -6.5 -11t-4.5 -10q-4 -12 -4 -18 q0 -4 4 -12q4 -4 9 -6h6q2 0 18 -4q27 -4 75 -18.5t95 -43.5zM453 180q12 16 12 29q0 10 -4 31q-6 16 -23 30q-16 12 -41 27q-20 10 -35 10q-16 0 -28 -6t-23 -14l-18 -19q-8 -8 -14 -16q-2 -4 -19 -12q-16 -4 -27 -4q-10 0 -14 2q-2 0 -2 1t-2 1q-2 4 -8 10l-6 6q-2 0 -4 1 t-7 1q-6 0 -8 -2q-4 -2 -8 -10q-4 -12 -6 -21q0 -6 -1 -14t-1 -18v-3q0 -20 8 -34q14 -20 39 -27q25 -6 51 -6q23 0 43.5 2t38.5 6q45 6 80 27q17 8 27 22z" />
<glyph unicode="7" horiz-adv-x="610" d="M522 766q33 -20 45 -49q4 -12 4 -21q0 -18 -8 -34q-12 -29 -35.5 -65t-46.5 -83q-18 -41 -39.5 -105.5t-40.5 -144.5q-20 -78 -35.5 -167t-21.5 -177q-4 -35 -5 -84t-5 -94q-6 -49 -19 -76q-2 -10 -12 -20q-6 -6 -12 -6h-4q-31 0 -45 12q-23 14 -33 49q-4 16 -6 33.5 t-2 34.5v30q2 23 11 110t28 200q18 113 44.5 230.5t63.5 203.5l11.5 23.5t9.5 21.5q10 27 10 43q0 20 -12 33q-10 10 -35 14q-14 2 -29 2h-31q-23 0 -42 -1t-40 -1q-31 0 -57.5 3t-44.5 11t-31 23q-4 8 -8 17t-6 22q2 20 18 37q12 10 31 16t35 10q8 4 15.5 4t11.5 2h8h2h2 q16 2 33.5 3t36.5 1q49 0 103 -6t101 -20q47 -12 82 -35z" />
<glyph unicode="8" horiz-adv-x="645" d="M442 467q12 -23 34 -51l46 -60l8 9l-8 -9q8 -10 18.5 -30.5t18.5 -44.5q20 -57 21 -109q0 -16 -2.5 -31.5t-8.5 -31.5q-14 -31 -41 -48q-45 -29 -114.5 -53t-141.5 -24q-55 0 -104 18q-51 20 -86 61q-23 25 -31 50.5t-8 52.5q0 41 17.5 81t39.5 72q10 16 20.5 29.5 t20.5 24.5l16.5 17l10.5 11q4 6 22 21l24.5 19.5l25.5 19.5q12 12 18 20q8 12 8 23v2q0 6 -4 10q-2 4 -6 9t-8 12q-16 20 -43 48.5t-53 61.5q-14 16 -25 33l-21 33q-8 16 -13 29.5t-3 25.5q0 68 29 96q29 35 94 37h4q29 0 69 -9t76 -36q39 -27 69 -74t38 -125q0 -29 -5 -51 t-11 -41q-10 -18 -13 -33q-6 -16 -6 -30v-2q0 -8 2 -15.5t6 -17.5zM252 696q10 -23 35 -49q23 -27 45 -39l16 -10l2 18q6 27 6 48q0 51 -24 75q-10 10 -23.5 14.5t-25.5 4.5q-4 0 -8.5 -1t-8.5 -1q-12 0 -18 -11q-6 -6 -6 -16q0 -13 10 -33zM432 172q23 29 23 57 q-2 4 -2 9.5t-2 11.5q-6 16 -18.5 38.5t-24.5 41.5l-27 32q-4 6 -10 13q-2 0 -6 4q-2 0 -3.5 1t-5.5 1q-29 0 -69 -35q-20 -16 -44 -44t-48 -69q-23 -33 -23 -57q0 -16 10 -33q12 -16 37 -26q18 -8 51 -8q45 0 88 18q49 20 74 45z" />
<glyph unicode="9" horiz-adv-x="716" d="M639 569q-10 -74 -15.5 -170t-5.5 -200q0 -127 9.5 -248t25.5 -199q0 -12 -14 -24q-16 -12 -35 -13q-12 0 -25.5 6.5t-25.5 22.5q-14 16 -25.5 43t-19.5 70q-20 109 -29.5 205t-9.5 182q0 53 4 101t8 89l4 25l-20 -13q-37 -18 -99.5 -33.5t-125.5 -15.5q-41 0 -77 8.5 t-65 24.5q-27 18 -43 47q-16 33 -16 74v12q2 27 14.5 52.5t32.5 52.5q29 39 72 72.5t88 60.5l45 22.5t43 16.5q45 16 72 16q2 2 8 2q39 0 66.5 -13.5t43.5 -29.5q14 -12 27 -29q6 -6 6 -10q2 0 2 -2l4 -8l8 2h2q4 0 15.5 -3t23.5 -13q12 -12 22.5 -38t10.5 -75q0 -31 -6 -70 zM481 662q4 8 4 16v2q-4 8 -8 14q-4 4 -9 5t-9 3q-16 4 -27 5q-47 0 -123 -29q-25 -10 -44 -23.5t-32 -27.5q-8 -8 -13 -16l-9 -13l-6 -12q-2 -4 -2 -13q0 -6 2 -8q0 -2 6 -8q2 -2 10 -2q2 -2 10 -2q23 0 64 10q18 4 36 9l31 10q18 6 39 17t39 24l16.5 13t14.5 13q4 4 5 6.5 t5 6.5z" />
<glyph unicode=":" horiz-adv-x="180" d="M41 455q-10 8 -16.5 23.5t-6.5 43.5v2v2q0 27 6.5 40.5t16.5 21.5q20 14 51 14h2q10 0 21.5 -3t21.5 -11t17.5 -19.5t7.5 -31.5v-13q0 -6 -4 -16q-6 -25 -13.5 -39t-15.5 -23q-10 -10 -29 -10h-16q-10 2 -21.5 5.5t-21.5 13.5zM88 276q33 -4 51 -16q10 -8 16.5 -21.5 t6.5 -39.5v-4q0 -29 -6 -43.5t-17 -24.5q-16 -16 -43 -16q-6 -2 -16 -2q-18 0 -29 12q-18 14 -28 61q-4 8 -5 16v13q0 18 7.5 29.5t17.5 19.5q20 16 43 16h2z" />
<glyph unicode=";" horiz-adv-x="286" d="M240 471q10 -8 16 -19.5t6 -29.5v-13q0 -7 -4 -16q-6 -27 -13 -41t-16 -22q-10 -10 -28 -11h-15q-10 2 -21 5.5t-22 13.5q-10 8 -16 23.5t-8 44.5v4q0 27 6 40t16 21q20 14 49 14h3q0 2 2 2q22 0 45 -16zM256 82q0 -23 -10 -53.5t-23 -61.5l-27 -54q-13 -26 -22 -40 q-6 -14 -19.5 -42t-29.5 -56q-8 -16 -16.5 -29.5t-16.5 -24.5l-16 -16q-6 -8 -13 -8q-12 -4 -14 -4q-4 0 -12 4t-14 24q-4 20 -9 66v6q0 35 15.5 82t38.5 94l44 86l31 58q20 33 56 32q33 0 53 -36q4 -17 4 -27z" />
<glyph unicode="=" horiz-adv-x="729" d="M676 211q20 -16 29 -31q6 -6 8 -12t2 -8v-2q0 -4 -4 -13q-8 -8 -29 -14q-10 -2 -25.5 -4t-35.5 -2q-8 0 -15.5 1t-17.5 1h-25q-37 0 -83 -4l-92 -8q-46 -4 -88 -9.5t-69 -5.5q-16 0 -36.5 -1t-42.5 -1q-27 0 -51.5 2t-45.5 11q-23 10 -28 22q-10 12 -13 35v2q0 27 13 39 q12 20 45 27q16 4 33.5 5t33.5 1h2h39q20 0 65.5 1t98.5 2l107 2q53 1 90 1h39v6v-6q29 0 53.5 -10.5t42.5 -26.5zM676 522q20 -16 29 -30q10 -12 10 -23q0 -4 -4 -12t-29 -15q-23 -6 -61 -6h-33q-8 2 -25 2q-37 0 -83 -4l-92 -8q-46 -4 -88 -9t-69 -5q-16 -2 -36.5 -3 t-42.5 -1q-27 0 -51.5 3t-45.5 11q-20 10 -28 20q-10 16 -13 35v4q0 23 13 39q10 16 45 27q31 6 67 6h2h39q20 0 65.5 1t98.5 1t106.5 1t90.5 1h39v6v-6q29 0 53.5 -10.5t42.5 -24.5z" />
<glyph unicode="?" horiz-adv-x="876" d="M178 252q-31 25 -47 74q-12 45 -16 92v6q0 27 16 67.5t45 88.5q43 72 105 151l120 152l107 125l63 71l34 44.5t26 41.5l17 40.5t7 31.5q0 8 -2 12t-8 11l-2 2q-37 14 -82 14q-43 0 -86 -11.5t-85 -28.5t-80 -37.5t-68 -39.5q-70 -41 -111 -41q-23 2 -34 9.5t-19 19.5 q-8 16 -8 31q0 23 14 49t55 49q137 84 251 110.5t185 26.5q25 0 43.5 -2t32.5 -4q25 -6 55.5 -20.5t57.5 -34.5q27 -23 43 -43t16 -35v-4v-2q0 -55 -36.5 -129t-96.5 -154q-59 -80 -128 -160l-134 -151q-96 -109 -126 -178.5t-30 -114.5q0 -31 7 -49q4 -16 6 -29.5t2 -23.5 q0 -16 -8 -25q-4 -4 -9.5 -8t-17.5 -8q-8 -2 -25 -2q-29 0 -49 16zM246 43q14 -10 39 -45q10 -20 10 -29q0 -14 -10 -30q-6 -6 -12.5 -11.5t-10.5 -9.5q-6 -4 -19.5 -7t-29.5 -3h-2q-23 0 -47.5 9t-40.5 38q-2 2 -2 14t5 28.5t15 29.5q25 31 58 30q31 0 47 -14z" />
<glyph unicode="@" horiz-adv-x="1267" d="M684 735q66 -4 107 -28q18 -10 32 -25q12 -10 13 -16q0 -4 1 -7.5t1 -7.5q0 -10 -4 -14q0 -2 -5 -6q-4 -2 -12 -2h-14l2 -17q0 -2 9 -35.5t26 -74.5q8 -16 28 -27q18 -6 41 -6q39 0 82 13.5t78 29.5q23 10 31 27q10 20 10 41q0 45 -33 116q-16 35 -37 72l-45 78 q-35 57 -85 80.5t-105 21.5h-2q-66 0 -134.5 -21.5t-127.5 -47.5q-84 -37 -153 -103.5t-118 -148.5q-51 -82 -78.5 -172t-27.5 -176v-26q0 -13 2 -26q8 -59 37.5 -99t75.5 -62q45 -23 98 -31t108 -8q51 0 100.5 5t93.5 12t79 15.5t55 12.5q33 8 65.5 17t65.5 20 q31 10 57.5 16t45.5 6q12 0 20 -4q6 -2 8 -8q6 -12 6 -27q0 -20 -16 -41q-27 -37 -98 -65q-49 -23 -108.5 -39.5t-113 -26.5t-96.5 -16l-57 -8q-10 -2 -29.5 -3.5t-46.5 -1.5h-2q-59 0 -142 11.5t-159 50.5q-37 18 -69.5 45t-57.5 61q-25 35 -39 82t-14 109v6 q2 113 24.5 206t59.5 170t86 136t104 106q115 94 244 136.5t235 48.5h19q100 0 177 -51.5t132 -122.5q55 -72 86 -146.5t39 -115.5q6 -31 6 -58q0 -68 -39 -119q-45 -53 -147 -86q-45 -14 -80 -19t-64 -5q-27 0 -45 3t-30 7l-17 8q-2 0 -4 2h-2l-10 9l-6 -13 q-16 -25 -42 -45t-61 -37q-33 -16 -68.5 -27.5t-66.5 -17.5q-10 -2 -19 -3t-20 -1q-29 0 -59.5 7.5t-54.5 23.5q-25 16 -40.5 38.5t-15.5 53.5v14q10 76 43 141.5t78 116.5q45 49 93 80t83 35q20 4 31 4h2zM690 520q-2 16 -2 33v27v16v14l-14 -2q-12 -2 -23.5 -8t-21.5 -16 q-33 -31 -66 -82l-55 -86q-10 -20 -10 -33v-2q0 -14 10 -21q6 -4 20 -4q16 0 36 5.5t36 13.5l6 2l6 2q33 12 56 33q16 12 22 20l-6 4l6 -4q8 10 10 23v2q0 2 -1 3t-1 3q-4 10 -6 25.5t-2 31.5z" />
<glyph unicode="A" horiz-adv-x="995" d="M279 1087q4 10 7 15.5t11 9.5t20.5 6t34.5 4q47 -6 103 -88q29 -43 58.5 -109.5t57.5 -160.5h2q45 -135 99.5 -248t105.5 -201q51 -86 90 -143l54 -80q23 -35 22 -69q0 -16 -8 -37q-8 -14 -23 -21q-6 -4 -18 -4h-2q-18 0 -49 21q-12 10 -25.5 23t-23.5 30q-12 16 -40 59 l-55 86l-26 41l-23 35q-4 8 -7 13t-7 10l-4 8h-2v2l-6 8l-11 -2q-2 -2 -28 -8q-20 -6 -52 -14.5t-69 -14.5t-74 -11t-69 -5h-21l-12 2l-2 -15q-12 -92 -25.5 -136t-23.5 -60q-8 -14 -17 -15q-4 -2 -9 -2t-11 -2h-15q-23 0 -37 9.5t-26 25.5q-10 16 -16.5 40t-10.5 52 q-4 31 -11 69t-13 77t-13.5 74.5t-11.5 62.5q-2 16 -3 30.5t-1 24.5q0 23 6 39q6 12 21 19q16 8 34 8q14 0 24.5 -4t18.5 -9l11 -10q2 0 2 -1t2 -1l20 -26l4 32q0 10 2 21l4.5 23.5t6.5 29.5q8 51 18 122t22 139l19 122q8 53 12 70q4 12 5.5 20t3.5 14zM311 410l13 -2 q16 -2 29.5 -3.5t27.5 -1.5q33 0 60.5 4.5l50.5 8.5q25 4 34 6l9 4h4l14 4l-4 14q-2 2 -23 56l-34 90l-39 106q-20 53 -34 99l-20 65h-2h2l-18 53l-10 -53q0 -4 -8.5 -53t-17.5 -117l-18 -141l-16 -125v-14z" />
<glyph unicode="B" horiz-adv-x="743" d="M551 322q-35 49 -80 98l-86 96q-20 23 -37.5 45.5t-30.5 42.5q-4 6 -11 19.5t-23 40.5q-6 12 -7 28q0 12 2.5 26.5t6.5 24.5q2 4 4 9.5t4 9.5t2 6l8 16q4 6 8 14.5t8 14.5q4 8 13 21l16 25l16 25q7 11 9 17l2 4l4 6v7q0 8 -6 14q-8 4 -13 4q-4 0 -12 -4 q-10 -4 -32.5 -15.5t-39.5 -23.5q-14 -14 -30 -27l-13 -12q-4 -8 -4 -16v-2v-2q0 -10 13 -23q14 -10 20 -25q2 -4 2 -6t2 -4v-4v-2v-2v-35q0 -27 -2 -49l-2 -6q-4 -49 -7 -98.5t-3 -94.5q0 -53 5 -98t17 -76q10 -27 17.5 -50t7.5 -40q0 -18 -6 -24q-8 -8 -19 -11h-20 q-16 0 -30.5 4.5t-30.5 16.5q-14 14 -27.5 37.5t-24.5 64.5q-14 51 -23 132t-9 165v2q0 72 9 134.5t27 97.5l9 14l-15 6q-23 10 -34 26.5t-11 33.5q0 39 43 65q18 12 46 27.5t62 29t71.5 23.5t78.5 10q53 0 109 -24q41 -20 59 -45q16 -23 17 -50v-2q0 -43 -37 -96 q-16 -25 -38 -47.5t-42 -40.5v-2h-2q-10 -12 -20.5 -29.5t-10.5 -42.5q0 -29 18.5 -62.5t65.5 -80.5q29 -29 63.5 -70t63.5 -88q29 -45 47.5 -93t18.5 -89t-17 -68q-20 -33 -59 -55q-92 -53 -182.5 -86t-172.5 -33q-49 0 -93 13.5t-85 44.5q-31 25 -44 65.5t-13 79.5v2 q0 31 6 53q2 8 6 13q2 0 2 2h2q18 0 39 -21q20 -18 39 -53l17 -25q8 -12 20 -22q25 -20 66 -21q20 0 42.5 3.5t53.5 13.5q41 10 81 24.5t72 32.5q31 14 56 39q25 29 24 55v2q0 25 -16 47v3z" />
<glyph unicode="C" d="M1135 256q14 -12 14 -27v-2q0 -16 -15.5 -37.5t-48.5 -37.5q-39 -18 -96 -38t-162 -48q-104 -29 -210.5 -50.5t-182.5 -29.5q-16 -2 -33 -2h-32q-66 0 -122.5 14t-99.5 45q-41 31 -66.5 78t-27.5 117v6q0 39 13.5 90t35.5 110q35 88 85 182l98 177q49 82 89 141.5 t56 79.5q41 49 82 49h2q41 0 96 -43q16 -12 23 -22q4 -6 4 -15q0 -6 -4 -10l-10 -10q-6 -6 -17 -10q-8 -6 -24 -15l-9 -6q-63 -47 -132.5 -143.5t-129.5 -206.5l-54 -106q-26 -52 -44 -99t-28.5 -84t-10.5 -63q0 -16 4 -25q23 -43 82 -63q27 -10 58.5 -13.5t68.5 -3.5 q92 0 200.5 19.5t213.5 46.5q102 25 154.5 40t91.5 23q10 2 20 3t18 1h2q32 0 48 -12z" />
<glyph unicode="D" horiz-adv-x="862" d="M164 1008q23 0 57.5 -9.5t75.5 -27.5q63 -27 133 -70t135 -96q66 -55 119 -118.5t82 -131.5q49 -115 49 -195q0 -51 -17.5 -94t-58.5 -86q-39 -43 -99 -87t-146 -93q-109 -63 -186 -87t-130 -24q-59 0 -89 20.5t-40 39.5v4q0 4 2 6q8 8 33 23q39 16 96.5 33.5t104.5 39.5 q35 16 99.5 50t129.5 77q33 23 61.5 47.5t51.5 51.5t36 54t13 58q0 20 -4 31q-23 78 -81.5 152.5t-127.5 136.5q-70 61 -137 102q-33 18 -60.5 29.5t-50.5 11.5h-12l-2 -12q-2 -10 -2 -37q0 -47 8 -118t19.5 -144.5t23.5 -139t22 -104.5q10 -57 11 -86q0 -35 -13 -53 q-14 -18 -37 -21q-4 -2 -14 -2q-25 0 -41 17q-18 14 -33.5 40.5t-29.5 61.5q-18 53 -31.5 119.5t-21 135.5t-10.5 133.5t-3 113.5v2q0 18 1 33.5t1 27.5q4 55 5 85t10 44q4 12 20 25q18 12 53 27q13 4 25 4z" />
<glyph unicode="E" horiz-adv-x="966" d="M883 1061q31 -16 37 -37q4 -8 4 -14q0 -16 -23 -39q-25 -18 -70 -31q-12 -4 -42.5 -11l-71.5 -16l-89 -18l-96 -21l-93 -19q-44 -9 -79 -17q-16 -4 -30.5 -6.5t-24.5 -4.5q-4 -2 -8 -2t-6 -2h-4h-2l-9 -2l-2 -8q-45 -141 -62 -252.5t-17 -195.5q0 -100 20 -158 q10 -27 30.5 -44.5t47.5 -27.5q49 -18 117 -18q53 0 110.5 9t106.5 24q106 29 143 49q12 4 21 4q20 0 43 -19q20 -16 20 -41q0 -16 -11.5 -33.5t-43.5 -35.5q-59 -35 -147.5 -66t-192.5 -31q-66 0 -135.5 15.5t-141.5 54.5q-41 23 -68.5 56.5t-43.5 76.5t-23.5 94.5 t-7.5 104.5q0 66 8 131t18.5 125.5t21.5 110t17 79.5v2v2v17q0 27 12.5 45t30.5 31q10 4 19 8l16 8q14 6 23 6q4 0 26 6q33 6 100 23l141 35l144 35l109 26q39 8 78 8q51 0 80 -16zM719 569v-2h2q27 0 43 -6q14 -4 22 -16l2 -2q14 -25 15 -41q0 -8 -3 -15.5t-16 -17.5 q-18 -18 -88 -41q-39 -10 -84 -24.5t-91 -26.5t-89 -21.5t-80 -9.5q-35 0 -53 8q-20 6 -33 25q-4 8 -4 14q0 18 24.5 46t86.5 44l74 24l92 28q47 14 95 23t85 9v2z" />
<glyph unicode="F" horiz-adv-x="776" d="M692 1087q27 -25 36 -51t9 -49v-8q-2 -12 -4 -19.5t-6 -11.5q-10 -6 -20 -6t-25.5 6t-28.5 23q-18 20 -46.5 27.5t-63.5 7.5q-41 0 -85 -10.5t-79 -30.5q-31 -16 -47 -70q-12 -35 -21.5 -80t-14.5 -93t-7 -96t-2 -87q0 -20 1 -37t1 -29l2 -18l16 4l36 12q24 8 52 16 q31 10 64 16.5t61 6.5q55 0 80 -27q25 -31 25 -53q0 -14 -9 -24q-6 -10 -17 -16.5t-24 -10.5q-14 -6 -25 -8t-20 -4q-10 0 -23 -4.5t-32 -8.5l-54 -21l-56 -22q-12 -4 -22.5 -8t-18.5 -8q-10 -4 -13 -6h-4q0 -2 -2 -2l-10 -4l2 -11h2h-2q0 -2 3 -22.5t7 -51t10.5 -65.5 l12.5 -65q6 -29 6 -48q0 -16 -4 -26t-8 -17q-12 -16 -39 -18q-6 -2 -17 -2q-37 0 -61 31q-16 20 -27.5 52t-17.5 66q-4 33 -6 61t-2 40v6v16h-15h-2q-4 0 -15 1t-28 6q-14 4 -27.5 12t-19.5 24q-6 8 -6 19v2q0 25 31 59q31 31 65 41l8 4v11v22v2q0 61 4.5 132t11.5 137.5 t16 124t18 96.5q6 39 27.5 78.5t58.5 74.5t88 56.5t118 23.5q6 0 11.5 -1t9.5 -1q72 -4 115.5 -22.5t68.5 -43.5z" />
<glyph unicode="G" horiz-adv-x="921" d="M645 377q2 0 4 -2q18 -4 31 -17h2v-2q25 -23 48.5 -73t57.5 -113q16 -35 35 -61l33 -50q12 -20 20.5 -36.5t8.5 -26.5q0 -12 -11 -23q-10 -10 -26.5 -19t-36.5 -9q-16 0 -36.5 8t-43.5 31t-48.5 63.5t-51.5 102.5l-6 16l-15 -10q-74 -47 -162 -81t-172 -34 q-57 0 -107 19.5t-89 66.5q-29 33 -40 69.5t-11 77.5q0 51 16 106.5t43 109t58.5 103.5t62.5 93q41 59 99.5 126t119.5 126q59 57 119 96q27 16 48 26.5t38 10.5q6 0 8 -2q23 -4 49.5 -22.5t48.5 -45.5q23 -27 35 -54t12 -46q0 -6 -4 -14q0 -6 -6 -8q-16 -10 -37 -11 q-25 0 -47 17q-12 6 -21 15t-14 18l-8 10l-12 -6q-39 -25 -106.5 -84.5t-139.5 -145.5t-134 -192.5t-87 -225.5q-2 -4 -2 -14q0 -12 5 -26.5t15 -24.5q25 -25 78 -25q23 0 47.5 3t55.5 14q66 18 109.5 49t76.5 59q16 16 29.5 27.5t23.5 21.5q25 19 37 19z" />
<glyph unicode="H" horiz-adv-x="841" d="M698 895q2 -66 6.5 -151t14.5 -180t28.5 -193.5t51.5 -190.5q12 -43 12 -71q0 -29 -10 -46q-10 -16 -21 -18h-6q-12 0 -32.5 11.5t-49.5 47.5q-29 35 -57.5 105t-54.5 184l-5 17l-14 -4q-49 -16 -96 -29l-88 -23q-41 -10 -73 -16t-48 -8l-14 -2l2 -17q18 -96 43.5 -154.5 t36.5 -95.5q4 -12 4 -16q0 -18 -13 -35q-14 -14 -32 -14t-45 14q-53 31 -91 125q-18 45 -33.5 100.5t-27.5 116.5l-2 6l-6 2q-25 16 -36 42t-11 49v2q0 18 6 30q2 12 8 13l8 4v10q-4 47 -7 102.5t-3 110.5v2q0 57 4 109.5t14 93.5q8 39 25 61q12 20 29 21h6q37 0 61 -27 q12 -16 21.5 -44t9.5 -75v-24q-6 -109 -6 -193q0 -51 2 -89t8 -60l2 -15l14 4q45 10 84 23l74 22q35 10 62.5 16.5t48.5 6.5h2q14 0 31 -8l22 -15l-2 29q-4 70 -11 165t-7 179q0 35 2 64.5t6 52.5q4 10 6 18.5t6 12.5t6 5l6 3h23h2q23 0 41 -6q12 -4 21.5 -12.5t19.5 -26.5 t15 -47t7 -72v-2z" />
<glyph unicode="I" horiz-adv-x="315" d="M176 881q0 -4 3 -74t12.5 -170t27 -213t45.5 -205q10 -33 16.5 -66.5t6.5 -64.5q0 -45 -13 -65q-6 -10 -14 -17q-6 -6 -18 -6h-4q-25 0 -37 10q-23 14 -41 56q-20 47 -35 108l-27 114q-16 69 -30.5 156.5t-24.5 194t-10 229.5v62v2v2q0 23 2 41t8 31q4 8 18 18q12 6 35 6 q29 0 45 -12q23 -18 29 -57q4 -20 4 -41t2 -39z" />
<glyph unicode="J" horiz-adv-x="671" d="M465 999l18 -75l28 -117l33 -139l33 -143q15 -69 26 -125l18 -87q8 -35 8 -77q0 -37 -8.5 -71t-28.5 -63t-53 -50t-86 -34q-39 -10 -80 -15t-82 -5h-2q-47 0 -88 8t-72 25q-63 37 -66 114q0 10 1.5 20.5t3.5 20.5q6 27 41 52q10 10 20 10t20.5 -9.5t20.5 -37.5 q10 -31 33 -54q29 -25 67 -24q20 0 45 6q29 8 57.5 18.5t51.5 30.5q53 43 53 127q0 12 -1 24.5t-3 26.5q-10 57 -29.5 143.5t-42.5 166.5q-10 41 -20 75l-19 64q-6 27 -12 41q0 4 -1 7t-1 5t-2 2v2l-4 12l-10 -2h-2q-4 -2 -8 -2q-4 -2 -9.5 -2t-11.5 -2q-41 -6 -118 -16 t-142 -10h-2h-28q-13 0 -23 2q-20 2 -31 10q-33 18 -47 42t-14 40t8 18q18 12 39.5 15.5t54.5 3.5h6v2v-2q16 0 51 4t76 10h2h2l77 15.5t69 15.5l8 2l8 2l58 17q30 9 55 10q20 0 34 -9q6 -6 11.5 -14.5t9.5 -24.5z" />
<glyph unicode="K" horiz-adv-x="958" d="M838 270q47 -31 62 -57.5t15 -44.5v-2q0 -10 -4 -20.5t-8 -18.5q-14 -18 -24 -23q-12 -6 -33 -6h-10q-2 0 -3.5 1t-3.5 1l-12 4q-23 12 -64 40l-89 61l-91 64l-71 55l-15 10l-8 -17q-18 -47 -45.5 -97t-56.5 -96l-54 -84q-26 -38 -44 -58q0 -2 -7 -2q-4 -2 -14 -3 q-16 0 -39.5 9.5t-42.5 33.5h-2q-41 45 -66.5 112t-41.5 144q-16 78 -22.5 162t-6.5 162q0 59 3 109.5t7 91.5q2 20 3 36.5t5 28.5q4 27 6 33v2l5 6h-3q0 2 1.5 3t1.5 3q2 12 14 21q10 10 41 10h14q8 0 19 -2q33 -8 45 -27q12 -16 12 -45q0 -25 -6 -51t-10 -55v-2 q-8 -37 -10.5 -76t-2.5 -78q0 -113 16.5 -212t32.5 -158l9 -27l16 22q27 33 58.5 90.5t60.5 122.5l2 3v2q0 29 9 46t20 29l16 17q2 0 3 1t3 1q0 2 2 2l4 2l2 4q0 2 2 4t6 12t11 22l14 25l53 107l66 125l60 113q28 51 44 73q23 35 51.5 49.5t55.5 14.5q37 0 59 -25 q12 -12 12 -37q0 -29 -16 -55q-8 -14 -18.5 -22.5t-18.5 -12.5t-13 -9l-13 -13q-23 -25 -51.5 -75t-59.5 -112l-65 -130l-60 -126l-2 -8l4 -8l2 2l-2 -2q6 -8 16.5 -16.5t26.5 -18.5q43 -33 111 -76z" />
<glyph unicode="L" horiz-adv-x="962" d="M860 182q39 -12 49 -35q6 -10 8.5 -11t2.5 -11q0 -37 -29 -62q-31 -29 -80 -30q-35 0 -94 -5l-122 -11q-62 -5 -119.5 -11t-88.5 -10l-32 -4q-15 -2 -31 -2q-29 0 -61 8t-66 37q-35 29 -69 81t-67 140q-10 33 -15 78t-5 98q0 74 7 157t18 160l19 140q9 63 15 100 q8 59 33 84q20 20 49 21q20 0 41 -11q10 -4 17 -22q2 -10 3 -22.5t1 -28.5q0 -35 -5.5 -76t-9.5 -82q-4 -35 -10 -81t-12 -99.5t-10 -109.5t-4 -109q0 -49 5 -93.5t15 -80.5q6 -16 15 -35l18 -35q10 -16 23.5 -29.5t29.5 -17.5q27 -6 61 -6q31 0 66 4t67.5 10t62.5 10t54 4 q31 0 74 4.5t86 4.5q49 -1 90 -11z" />
<glyph unicode="M" horiz-adv-x="1079" d="M223 383l2 6q4 37 19.5 84t36.5 88q25 47 43 70q10 14 21 20t17 8h13q20 0 37 -10q23 -14 41 -57q10 -23 19 -52l22 -67l8 -24l16 20q29 35 51.5 88t44.5 113l38 113l28 89q10 35 21.5 68t23.5 59q16 29 31 41q18 14 35 15q23 0 38 -15q29 -25 50 -98q10 -37 18 -90 t12 -123h2h-2q12 -150 42 -257t69 -186t82 -133.5t80 -95.5q35 -37 35 -75q0 -33 -21.5 -53.5t-50.5 -20.5q-25 0 -51 20q-80 68 -134.5 149t-91.5 172t-59.5 189.5t-36.5 200.5l-2 12q-2 12 -3 37t-5 25q-2 0 -4 -10.5t-6 -22.5q-4 -14 -7 -33l-2 -6q-10 -37 -25.5 -82 t-34.5 -94t-44 -97.5t-51 -88.5q-20 -29 -39 -40.5t-35 -11.5q-31 0 -65 29l-35 36q-18 19 -35 44l-17 24l-8 -28q-16 -55 -41.5 -115.5t-54.5 -112.5q-12 -25 -26 -44l-25 -35h-2l-2 -2l-12 -12l-9 -9q-12 -6 -16 -6h-2q-37 6 -62 41q-39 49 -59 143q-10 43 -13 88t-3 86v2 q0 55 6 97q2 18 6 30q4 8 4 11l2 2h2v2q31 31 62 30q35 0 57 -34q12 -18 20.5 -44t10.5 -59v-8q-2 -16 0 -29q0 -27 10 -26q8 0 10 15t6 40z" />
<glyph unicode="N" horiz-adv-x="962" d="M791 903q10 -147 30.5 -267t41.5 -217l39 -171q17 -74 24 -129q0 -10 1 -18.5t1 -16.5q0 -31 -7.5 -51.5t-17.5 -32.5q-23 -23 -76 -23q-43 0 -100 13q-106 23 -194.5 80t-151.5 116q-33 31 -57.5 58.5t-40.5 48.5q-10 10 -17 19l-10 16q-6 6 -6 8q-2 2 -2 4h-2l-23 37 l-2 -43v-2q0 -4 -2 -48t-2 -94v-47q2 -2 2 -6v-2q0 -23 -5 -40t-13 -32q-18 -29 -49 -28q-4 0 -8.5 1t-8.5 1q-33 10 -53 39q-31 45 -43 127q-8 37 -11 75.5t-8 73.5v27v2q0 45 9.5 94t25.5 90q8 23 17.5 40.5t19.5 29.5q20 25 39 24h4q23 0 45 -14q37 -23 80 -78l100 -133 q80 -109 175.5 -172t205.5 -88l27 -6l-8 25q-29 82 -48.5 198.5t-32.5 232t-20.5 210t-9.5 133.5q0 14 -1 27.5t-1 23.5v2q0 45 10 65q6 10 17 17q8 4 26 8h7q16 0 30 -14q20 -20 37 -74q15 -58 17 -119z" />
<glyph unicode="O" horiz-adv-x="958" d="M473 1012l6 -2q31 -10 88.5 -42t122.5 -89q66 -59 125 -144.5t96 -208.5q18 -61 19 -112q0 -86 -42 -147.5t-102 -108.5q-59 -47 -126.5 -77l-114.5 -52q-31 -14 -71 -22.5t-83 -8.5q-51 0 -104.5 14.5t-100.5 46.5q-47 35 -85 89.5t-60 136.5q-12 61 -12 131 q0 137 48 291.5t142 298.5q29 41 67 57t74 16q39 0 70 -16t41 -45zM492 846q-29 8 -54.5 12t-50.5 4q-33 0 -72 -6l-6 -2l-4 -6q-12 -18 -22 -41q-10 -18 -22 -44l-23 -56q-27 -63 -48.5 -140.5t-21.5 -152.5q0 -55 14 -101q12 -37 33 -61.5t45 -40.5q27 -16 55.5 -21.5 t57.5 -5.5q35 0 70.5 7.5t67.5 16.5t57 20l44 20q29 14 58.5 32.5t54.5 41.5q23 23 39 53.5t16 66.5q0 4 -1 10.5t-1 12.5v2v2q-16 86 -52 152.5t-79 113.5h-2h2q-43 47 -84.5 75t-70.5 36z" />
<glyph unicode="P" horiz-adv-x="589" d="M217 1102q55 0 116.5 -18.5t117.5 -57.5q57 -39 83.5 -92t26.5 -115q0 -55 -22.5 -113.5t-63.5 -109.5q-45 -53 -90 -92t-82 -64q-18 -12 -34 -21l-25 -16l-17 -8q-2 -2 -6 -2l-8 -4v-10v-17q2 -18 8 -53l12.5 -74.5t11.5 -76.5t9 -62q0 -6 1 -11t1 -9q0 -23 -5 -37 t-15 -25q-20 -20 -48 -22q-41 8 -69 43q-23 27 -36 62.5t-24 72.5q-10 37 -14 68.5t-8 52.5q-6 37 -6 84v34q0 17 4 31q2 31 10 45l2 4v5q-4 10 -5 42.5t-3 77.5t-2 97v102v2q0 66 1 122t5 87q25 41 70 59.5t102 18.5h2zM250 940q-31 0 -55 -8h-2l-3 -2l-4 -4q-2 -4 -3 -7.5 t-3 -7.5q-2 -12 -3 -31.5t-1 -41.5q0 -39 2 -85t4 -87q2 -20 3 -38t3 -30q0 -14 2 -20v-5v-2l3 -20l18 8q35 16 67.5 55t61.5 84t47 84q16 35 21 62q0 4 -5 12v2l-2 2q-31 43 -69.5 61.5t-79.5 18.5h-2z" />
<glyph unicode="Q" horiz-adv-x="1089" d="M922 139q-6 -4 -11 -6l-8 -4q-2 -2 -6 -2q0 -2 -2 -2l-12 -6l6 -13l6 -12l10 -20l25 -39l28 -46l27 -44q12 -20 23 -33q10 -14 18 -23.5t14 -19.5q12 -18 13 -35q0 -4 -4 -20q-4 -12 -6.5 -17.5t-6.5 -9.5q-4 -2 -9 -3t-17 -1h-24q-13 0 -32 4q-18 0 -53 31 q-23 23 -47.5 52.5t-46.5 59.5l-42 61q-19 28 -34 46l-6 10l-12 -6l-13 -6q-8 -4 -20 -8q-39 -14 -106.5 -28.5t-145.5 -14.5q-47 0 -96 8t-94 28q-45 18 -84 51t-70 85q-35 59 -51.5 120.5t-16.5 122.5q0 76 20.5 149t51.5 140.5t68 128t71 109.5q29 41 59.5 65.5 t59.5 38.5t55.5 19.5t47.5 5.5q20 0 40 -4q4 -2 6.5 -2t4.5 -2h2h2l6 -3l4 3l2 2h2q10 6 48 22t81 16q8 0 14.5 -1t14.5 -3q35 -6 69.5 -27.5t69.5 -54.5q53 -51 97 -122.5t79 -149.5t54.5 -156.5t19.5 -144.5v-4q0 -86 -25.5 -142.5t-58.5 -91.5q-16 -18 -31.5 -29.5 t-27.5 -21.5zM868 305q18 27 34 68t16 102q0 57 -19 135q-14 53 -34.5 110.5t-49.5 104.5l-32 42q-15 19 -31 36q-39 33 -78 33h-2q-49 0 -94 -49q-14 -12 -41 -18.5t-56 -6.5h-2q-23 0 -44 2t-36 4l-6 2l-6 -6q-29 -29 -66.5 -76t-72.5 -104q-35 -59 -57.5 -122.5 t-22.5 -125.5v-20q4 -45 7 -92.5t24 -87.5q23 -45 65 -68q45 -25 125 -25q47 0 108.5 8.5t141.5 30.5l16 4l-8 17l-41 77.5l-31 57.5q-23 51 -22 70q0 8 4 16q6 8 16 16q31 18 58 19q47 0 80 -49q16 -23 30 -48l29 -47q6 -10 11 -20t10 -16q4 -8 8 -15l6 -12l12 6 q2 2 17.5 12t33.5 35z" />
<glyph unicode="R" horiz-adv-x="978" d="M944 90q20 -16 21 -35q0 -10 -7 -22q-6 -14 -28 -21q-23 -8 -68 -8q-47 0 -110 6q-47 4 -94.5 4t-92.5 11q-47 10 -89 34.5t-83 73.5q-20 25 -28.5 58.5t-10.5 72.5v2q0 53 13.5 111.5t31 111t35 94.5t27.5 62q23 47 38 104.5t15 100.5q0 27 -10 43q-14 23 -53 22 q-39 0 -85.5 -23.5t-76.5 -76.5v-2l-2 -2q-16 -33 -26.5 -79t-18.5 -99q-12 -111 -13 -232q0 -94 7.5 -171.5t17.5 -118.5q12 -37 12 -62q0 -33 -16 -45q-6 -8 -16.5 -11t-20.5 -7q-4 0 -5 -1t-5 -1q-29 0 -56 36q-23 25 -40 64t-31 80l-24.5 74.5l-16.5 52.5q-6 25 -6 43 q0 29 14 55.5t41 54.5l4 5v6q-2 10 -2 37q0 39 6 91t17.5 107t26 108.5t32.5 96.5q12 31 41 61.5t67 55.5q41 25 86.5 40t90.5 15q47 0 89 -18.5t76 -59.5q47 -61 48 -162q0 -72 -18.5 -149.5t-45.5 -151.5l-51 -136q-25 -62 -39 -103q-6 -18 -6 -33v-2q0 -25 12 -42t33 -30 q29 -16 68.5 -25.5t82.5 -13.5q43 -6 85 -9t75 -11q31 -6 51.5 -14.5t30.5 -16.5z" />
<glyph unicode="S" horiz-adv-x="620" d="M551 1040q18 -16 30.5 -34.5t16.5 -32.5v-10q0 -16 -16 -33q-18 -14 -41 -15q-20 0 -33 11l-6 4q-10 4 -22.5 8t-26.5 4q-37 0 -80 -29q-23 -16 -47.5 -39.5t-53.5 -58.5q-33 -41 -32 -90q0 -51 28.5 -101.5t67.5 -97.5t80 -89t69 -75q35 -37 56.5 -88t21.5 -102 q0 -57 -28 -98q-16 -20 -41 -37t-64 -27q-68 -20 -133 -20q-96 0 -160.5 34.5t-99.5 81.5q-14 23 -14 46v2q0 29 20 49t39 20q10 0 16 -8v-2q45 -53 90 -72q45 -18 109 -18h22q12 0 25 2q29 0 45 16q18 12 19 39q0 23 -12.5 49.5t-33.5 59.5q-20 33 -47 68l-57 77 q-86 109 -123 183.5t-37 142.5v28q4 35 33 78t70 84q43 41 93 72t97 47q16 6 30.5 8t27.5 2q33 0 57.5 -11.5t44.5 -27.5z" />
<glyph unicode="T" horiz-adv-x="952" d="M934 1077q12 -6 18 -18q10 -16 11 -35q0 -12 -5.5 -26.5t-17.5 -28.5q-12 -16 -32.5 -31.5t-51.5 -32.5q-47 -23 -107 -46l-114 -44l-52 -18l-40 -15q-10 -4 -17.5 -6t-11.5 -4q-6 -2 -10 -2l-10 -4v-8v-2q4 -61 10 -123q4 -53 12 -113.5t19 -109.5q23 -100 49 -179 t43 -120q6 -16 11 -33t5 -31v-2q0 -20 -12 -33q-10 -14 -41 -14q-27 0 -51 18q-35 29 -62.5 84.5t-42.5 104.5q-10 31 -23.5 94t-25.5 135t-22.5 141.5t-10.5 116.5v2v11l2 16h-16q-20 -4 -42 -4h-44q-33 0 -65.5 2t-61.5 10q-63 12 -88 45q-23 29 -23 60q0 27 17 43 q8 8 17 13t26 5h2q10 0 26 -4q23 -6 44.5 -8t41.5 -2q35 0 65 5l54 9q45 8 113.5 27.5t140.5 44.5l135 48l101 38q70 29 110 28q15 0 27 -4z" />
<glyph unicode="U" horiz-adv-x="757" d="M623 1001q39 -66 71.5 -185.5t32.5 -278.5v-2q0 -78 -11 -165t-36 -180q-35 -111 -107.5 -165t-162.5 -54q-57 0 -115.5 22.5t-112.5 69.5q-37 33 -66.5 81.5t-50 103.5t-30.5 114.5t-10 112.5v2q0 84 26 141q25 55 72 58h4q12 0 25 -6q8 -4 16 -15.5t14 -33.5 q6 -23 10.5 -54.5t4.5 -79.5q0 -20 -1 -42.5t-3 -47.5v-8q0 -45 15 -87t40 -75q25 -35 57.5 -55t69.5 -22q8 0 24 4q78 18 125 114q23 49 37 121t14 170q0 14 -2 21q-2 104 -14 180t-29 129q-16 53 -34.5 86t-28.5 53q-6 6 -6 14q0 12 14 25q16 12 39 12q29 0 61 -20 q23 -14 46 -55z" />
<glyph unicode="V" horiz-adv-x="808" d="M727 1067v2v-2q4 -2 13.5 -10t17.5 -29q8 -18 13 -49t5 -72q0 -53 -11 -126.5t-40 -172.5l-78 -236q-39 -114 -74 -200l-34 -79q-16 -36 -33 -60q-10 -20 -27 -37q-4 -2 -5 -4t-5 -4q-2 0 -4 -2h-6q-18 0 -41 9t-51 36q-27 25 -56.5 68.5t-64.5 115.5q-33 68 -69 154 t-66 168q-16 41 -29 78l-23 69q-10 29 -15 51.5t-3 32.5v2v2q8 20 31 35q18 12 32 12q18 -4 29 -10q10 -8 22.5 -24.5t26.5 -45.5q25 -57 64 -159q27 -72 54.5 -131.5t49.5 -102.5q10 -20 20.5 -36.5t16.5 -28.5q8 -12 10 -17l4 -4v-2l15 -20l10 22q0 2 19.5 39t47 100.5 t59.5 146.5t60 175q27 90 44.5 156.5l29.5 109.5q10 43 25 66l8 12q4 2 6 2h2z" />
<glyph unicode="W" horiz-adv-x="1036" d="M598 1047v-3q20 0 42 -7t44 -25q23 -20 47.5 -52t48.5 -86q39 -84 81 -191.5t77 -217.5q35 -111 56.5 -206t21.5 -150v-3q0 -18 -2 -24q-8 -57 -58 -86q-47 -25 -114 -25q-59 0 -119 17q-43 12 -81 35.5t-68.5 50t-53 52.5l-35.5 42l-12 18l-10 -18l-45 -56 q-25 -30 -58 -55t-71.5 -41t-85.5 -16h-21q-41 2 -73 33q-23 20 -38.5 52t-25.5 67t-13 72.5t-3 70.5v33q4 43 8 117.5t20 146.5q10 37 20.5 68.5t24.5 54.5q29 47 70 47h4q25 0 35 -17q16 -20 16 -75v-2q0 -25 -3 -59t-13 -77q-31 -170 -31 -266q0 -41 6 -61q0 -6 2 -11.5 t5 -9.5q8 -12 20 -12h2q16 0 33 12q25 16 52.5 46t49.5 63q10 16 23.5 32.5t29.5 32.5q35 35 68 35q14 0 30.5 -8t35.5 -31l59 -72q31 -38 63 -69q31 -31 65 -52.5t71 -23.5h2q23 0 43 10q10 6 14 17q2 6 2 18q0 18 -5 46t-15 59l-41 135l-16 51l-20 68l-24 77 q-12 41 -26 80q-29 82 -64 140q-16 27 -35 47q-10 8 -21 13t-24 5h-4q-2 0 -18 8q-25 18 -43 39q-18 20 -19 41v2q0 8 2 11q4 8 15 10l47 20q25 10 53 10v3z" />
<glyph unicode="X" horiz-adv-x="819" d="M393 623l4 -9q16 -25 59 -83l91 -123l95 -126q46 -60 71 -89l36 -45q15 -19 25 -37q20 -33 21 -66q0 -16 -2 -25q-6 -23 -17 -30q-10 -10 -28 -10q-16 0 -41 9t-54 31q-33 20 -86 89l-82 104l-79 109q-39 53 -60 84q-6 8 -9 14t-7 10l-6 6v2l-2 2l-13 17l-10 -17v-2 q-2 -2 -14.5 -24.5t-29.5 -60.5t-36.5 -90t-34.5 -113v-3l-2 -2l2 -4q20 -55 21 -90q0 -29 -15 -43q-12 -12 -43 -12h-15q-7 0 -17 2q-47 8 -70 55q-12 23 -17 47.5t-5 49.5v2q0 10 1 18t1 18q4 27 23.5 78t45.5 113l53 121l52 108l4 10l-6 7q-10 8 -25 37q-12 20 -27 50 l-28 60l-29 62l-27 55q-12 27 -17 46t-5 32v2q0 16 8 24q8 12 29 21q18 8 37 8q14 0 30 -10q18 -14 35 -39q16 -20 33 -49l31 -56q6 -14 12 -25.5t10 -21.5q2 -4 4 -7t2 -5q2 -2 2 -4v-2h2l11 -25l14 23v2l2 2l4 8l38 58l77 112q43 59 76 80q31 23 55 22q27 0 45 -18 q27 -20 27 -53q0 -37 -29 -72l-84 -118q-55 -79 -115 -193z" />
<glyph unicode="Y" horiz-adv-x="872" d="M850 1020q0 -12 -8 -29q-10 -31 -34 -74t-42 -92l-18 -55l-29 -87l-35 -109l-37 -119l-34 -121q-17 -61 -29 -115q-29 -111 -29 -168q2 -27 6 -52.5t4 -43.5q0 -14 -4 -23q-2 -6 -12 -12q-4 -2 -11.5 -4t-17.5 -2h-2q-18 0 -40.5 6t-41.5 23q-18 14 -30.5 36.5 t-12.5 57.5q0 16 2 24q6 57 13.5 101.5t16.5 85.5t22 86l32 102l38 114l32 99l23.5 81t13.5 52l4 29l-25 -14q-59 -33 -128.5 -52.5t-135.5 -19.5q-82 0 -133 33q-59 37 -98 88q-43 49 -43 84h2q0 12 4 16q2 6 14 12q31 12 49 13q20 0 37 -13q18 -14 29 -30q16 -23 51 -47.5 t94 -24.5q20 0 42 3t46 13q47 16 94.5 38t88.5 44l37 24l34 21q31 25 45 41q10 16 28.5 27.5t41.5 11.5q20 0 41.5 -11t44.5 -44v-4z" />
<glyph unicode="Z" horiz-adv-x="1062" d="M1065 195q23 -23 22 -56v-2q0 -27 -18 -55q-18 -25 -47 -31q-27 -4 -89.5 -10l-143 -13.5t-173.5 -13.5l-177 -12q-85 -6 -154.5 -9t-106.5 -3h-10q-41 2 -68.5 13t-44.5 28q-16 16 -23 33.5t-7 31.5v10q4 12 14 31t37 47l68 71l106 101q66 61 123 131t104 138t79 130 t46 109l4 21l-6 2h-4l-8 4l-8 2q-10 2 -21.5 3t-26.5 1q-31 0 -64.5 -5t-65 -11.5t-57.5 -12.5t-40 -8h-16q-39 0 -70 35q-14 16 -21.5 35.5t-7.5 34.5v2q0 16 9 24q4 4 17 12.5t32 14.5q55 23 146 38t186 19q4 0 8 1t8 1q49 -2 84 -16t57 -37q43 -47 43 -113q0 -8 -1 -15 t-1 -13q-16 -92 -64 -189.5t-113.5 -187.5t-143.5 -169t-156 -134l-53 -37h63q43 0 138 8l204 19q109 8 182.5 15t139.5 11q6 2 16 2q29 0 46.5 -8t27.5 -18z" />
<glyph unicode="a" horiz-adv-x="950" d="M934 78q29 -8 41 -21q8 -10 8 -22q0 -14 -4 -23q-12 -18 -31 -32q-10 -10 -21 -15l-24 -8q-16 -4 -26 -4q-35 0 -64 9t-45 20q-51 25 -96 60.5t-74 80.5l-10 14l-13 -12q-84 -86 -162.5 -122t-148.5 -36q-59 0 -110.5 23.5t-85.5 64.5q-35 41 -35 105q-2 45 15.5 96 t45.5 102q29 51 67 98.5t79 82.5q63 55 117.5 75.5t95.5 20.5q31 0 53 -7t35 -16l12 -6l8 12q2 8 8 11q2 2 9 2q10 0 32 -13q10 -6 20.5 -14t20.5 -18q10 -6 17 -33q4 -18 6 -43t4 -53v-57q0 -28 4 -52q8 -68 45 -121q27 -39 61.5 -66.5t71.5 -47.5q8 -4 24.5 -14.5 t49.5 -20.5zM522 297q2 14 3 29.5t1 31.5q0 25 -2 49.5t-4 43.5l-4 43l-2 14l-12 2h-21q-61 0 -119 -39q-41 -29 -75.5 -67.5t-59.5 -79.5q-14 -23 -23 -42.5l-18 -39.5q-6 -20 -10 -38t-4 -34q0 -12 2 -23.5t10 -21.5q6 -10 25 -16q16 -4 29 -5q31 0 73 17q61 23 117 59 l25.5 17.5t21.5 17.5q18 14 31 31q6 10 9 23.5t7 27.5z" />
<glyph unicode="b" horiz-adv-x="667" d="M168 678q6 29 18 51q10 18 27.5 33.5t46.5 13.5q27 -2 67 -8t85 -30.5t91 -76t87 -143.5q49 -109 54 -204q0 -9 1 -16q0 -85 -48 -153q-52 -74 -170 -125t-312 -73q-2 0 -5 -1q-15 0 -37 11q-26 12 -40 30q-11 13 -11 25q0 4 2 8q5 16 48 23q84 20 157 43q61 18 122 42 t83 50q23 25 43.5 55.5t27.5 69.5q4 19 3.5 40.5t-3.5 44.5q-7 46 -40 101q-59 104 -117 126q-19 7 -34 8q-29 0 -40 -29q-23 -57 -27.5 -142t-8.5 -219q-5 -94 -51 -93q-13 0 -29 7q-39 18 -77 156.5t-42 396.5q-2 130 -2 227.5t2 161.5q4 126 38 125h1q18 0 36.5 -2t33 -9 t23.5 -24.5t9 -50.5t-5 -86t-9 -115.5t-5 -127.5v-15q0 -57 7 -106z" />
<glyph unicode="c" horiz-adv-x="743" d="M326 764q27 -6 40 -21.5t14 -35t-12.5 -38t-39.5 -28.5q-29 -10 -58.5 -55t-54.5 -106.5t-41 -128t-16 -118.5q0 -53 22.5 -76.5t58.5 -29.5q15 -3 32 -3q23 0 48 5q45 8 93 18l153.5 39.5t83.5 18.5q23 4 41.5 -6.5t26.5 -26.5q5 -9 4 -19q0 -7 -2 -15q-6 -17 -31 -27 l-103 -39q-67 -25 -145 -44.5t-156 -25.5q-17 -1 -33 -1q-59 0 -108 17q-68 27 -94 73t-29 96v17q0 42 9 82l16 76q2 20 14.5 59.5t32 86.5t45 96t55 87t63.5 59q26 16 54 15q8 0 17 -1z" />
<glyph unicode="d" horiz-adv-x="958" d="M854 195q74 -29 103 -52q26 -20 27 -34q0 -12 -9 -21q-8 -8 -26.5 -12t-50.5 -2t-77 14q-47 10 -91 33.5t-81 50.5t-61.5 50.5t-30.5 33.5q-6 -27 -26.5 -72t-58.5 -87t-94 -71q-47 -25 -108 -25q-13 0 -26 1q-78 6 -128 38t-72 83q-17 40 -17 88q0 14 2 28q6 65 39 132 q33 68 75.5 131t91 115.5t97.5 88t92 46.5q2 94 6 176q4 70 7 137.5t12 95.5q6 18 27.5 34.5t43.5 19.5q4 1 8 1q18 0 33 -11q18 -13 21 -50v-80q0 -53 -1 -120.5t-2 -142.5t-2 -139q-1 -32 -1 -60.5t1 -53.5q1 -49 5 -65q4 -25 19 -63t46 -80t81 -82.5t126 -73.5zM281 147 q45 12 78.5 52.5t53 98.5t23.5 131q1 15 1 29q0 59 -13 124q-45 -23 -84 -58q-35 -29 -72 -72.5t-59 -103.5q-36 -91 -36 -144q0 -16 3 -29q10 -36 53 -36q22 -1 52 8z" />
<glyph unicode="e" horiz-adv-x="841" d="M819 211q2 -4 2 -12q-2 -27 -30.5 -51.5t-76.5 -46t-112.5 -41t-138.5 -37.5t-150 -19q-57 0 -108 13.5t-92 45.5q-41 31 -63.5 82.5t-22.5 124.5q0 96 34.5 183.5t79.5 155t90 111.5t68 56q18 10 45 19.5t55 9.5q41 0 80 -25.5t64 -95.5q16 -53 16 -90q0 -78 -45 -125 t-102 -76q-39 -20 -70 -20q-39 0 -59.5 21.5t-26.5 37.5q-6 14 -6 27q0 20 13 32.5t32.5 19.5t44.5 13t49 15q29 10 40 30.5t11 42.5q0 20 -9 38t-21 22h-7q-16 0 -46.5 -21.5t-64.5 -60.5t-68 -94.5t-56 -118.5q-18 -55 -18 -94q0 -41 14 -69t36.5 -46t50.5 -28.5t54 -14.5 q8 -2 25 -2q39 0 94 11t108.5 24.5t94.5 26t53 16.5q16 4 51 14t60 10q10 0 17 -2t11 -12z" />
<glyph unicode="f" horiz-adv-x="604" d="M575 295q8 -31 8 -37q0 -13 -12 -29q-14 -18 -53 -38.5t-119 -45.5q6 -33 13 -88l12 -113q6 -58 10 -113.5t4 -88.5t-2 -73t-11 -73.5t-26.5 -56t-46.5 -22.5q-31 0 -86 24.5t-110.5 72.5t-95.5 121q-36 66 -36 153q0 9 1 18q4 98 32.5 160.5t65.5 100.5t70.5 55.5 t50.5 23.5q-4 25 -12.5 86t-14.5 140t-9 163q-1 28 -1 54q0 53 4 101q6 71 22.5 116.5t51.5 47.5q18 0 30.5 -7t19.5 -30.5t8 -66.5v-18q0 -39 -3 -97q-4 -64 -4 -121q0 -72 6 -133q10 -111 33 -196q29 12 61.5 20t62 11t50 -2t26.5 -19zM301 -315q6 51 6 103q0 20 -1 40 q-3 74 -11 133q-8 70 -23 137q-31 -10 -55 -35q-23 -23 -40 -61.5t-19 -105.5q0 -5 -1 -11q0 -47 17 -84q18 -41 43 -67.5t49 -38.5q21 -11 32 -11q2 1 3 1z" />
<glyph unicode="g" horiz-adv-x="616" d="M391 672q14 -12 43 -87t59.5 -187.5t56 -249t36.5 -269.5q2 -25 1 -47q0 -60 -12 -106q-16 -63 -46.5 -104.5t-70.5 -65t-80 -34.5t-76 -14.5t-58 -3.5q-98 0 -148.5 20.5t-81.5 59.5q-15 18 -14 35q0 20 13 35q11 12 27.5 16t31.5 -8q60 -46 131 -46q15 0 29 2 q89 11 167 75q39 31 53 80q12 43 11 93v15q-2 59 -16.5 125t-32.5 131q-49 -53 -116 -79q-54 -21 -103 -20q-12 0 -24 1q-60 6 -103 48t-43 126q0 82 27.5 160t65.5 144.5t81 116.5t73 81q61 59 105 78q17 7 30 7q21 0 33 -18q13 -16 13 -34q0 -14 -8 -30q-17 -36 -54 -46z M354 446q-4 18 -9 46t-11 54.5t-12 45.5q-6 17 -10 16q-13 0 -45 -44q-26 -36 -50 -84t-43.5 -102t-27.5 -100q-3 -20 -3 -38q0 -22 5 -40q9 -32 45 -36q7 -1 15 -1q17 0 41 3q36 4 64.5 30.5t43.5 85.5q7 27 7 63q0 43 -10 101z" />
<glyph unicode="h" horiz-adv-x="888" d="M170 698q-1 -23 -1 -47q0 -37 2 -78q3 -68 9 -126t14.5 -97t14.5 -37q10 2 37.5 64.5t81.5 150.5q39 63 81 63q19 0 38 -11q65 -39 118 -183q27 -72 58.5 -116.5t63.5 -72.5t64 -45l62 -34q29 -16 43 -36q12 -16 12 -30q0 -21 -24 -36q-20 -12 -60 -13q-41 0 -79.5 17.5 t-72.5 43t-61.5 55.5t-46.5 54q-18 25 -38 63l-36 74l-30 61q-12 26 -19 26q-6 0 -23.5 -37t-36.5 -87l-39 -101q-19 -50 -28 -77q-18 -53 -32.5 -85.5t-36.5 -32.5q-23 0 -45.5 14t-46.5 49q-8 20 -16.5 76.5t-16.5 130.5l-16.5 159t-14.5 161.5t-10 138t-4 90.5 q-2 45 -6 108q-2 36 -3 71q0 26 2 51q3 58 16 99.5t46 41.5t50.5 -57.5t24.5 -135.5t7 -159t-2 -128z" />
<glyph unicode="i" horiz-adv-x="466" d="M135 690q25 0 39 -31q7 -15 7 -44.5t-7 -73.5l-10 -71q-6 -42 -6 -87t7 -90t28.5 -81t60.5 -58.5t100 -22.5q86 0 121 -2q37 -2 37 -39q0 -33 -34 -57q-36 -27 -134 -27q-49 0 -102.5 17.5t-98.5 58.5t-74.5 107.5t-29.5 164.5t10 163t24.5 103.5t32 54t29.5 15.5z M223 940q0 -31 -19.5 -51.5t-47.5 -20.5q-29 0 -48.5 15.5t-19.5 46.5q0 29 19.5 54.5t48.5 25.5t48 -20.5t19 -49.5z" />
<glyph unicode="j" horiz-adv-x="505" d="M-45 -479q37 0 87 5t103.5 18.5t106.5 37t95 60t70.5 90t33.5 125.5q1 26 1 50q0 42 -5 79q-7 57 -21 106t-32.5 96.5t-36 97.5t-33 108.5t-21.5 131.5q0 72 -16.5 109t-57.5 37q-43 0 -61 -47q-8 -21 -8 -55q0 -41 12 -99q12 -53 38 -132l51 -163q26 -84 44 -163 q15 -65 15 -113q0 -11 -1 -21q-2 -35 -10 -76t-46 -77.5t-117.5 -61t-225.5 -24.5q-63 0 -103 13t-75 30q-16 8 -28.5 -1.5t-15.5 -27.5q-1 -6 -1 -13q0 -13 4 -26q6 -20 25 -33q39 -27 86 -44t143 -17zM212 856q-24 -23 -56 -22q-33 0 -54 20q-14 14 -13 32q0 9 3 19 q18 57 74 78q9 3 16 3q21 0 37 -19q19 -23 19 -48q0 -38 -26 -63z" />
<glyph unicode="k" horiz-adv-x="974" d="M127 1141h5q19 0 31 -16q13 -17 19 -47.5t8.5 -70.5t2.5 -85q0 -43 1 -100.5t4 -110t5 -94.5t6 -54q12 33 32.5 67t45 62.5t52.5 47t52 18.5q25 0 58.5 -23.5t58 -63.5t31.5 -90q1 -9 1 -18q0 -42 -24 -86l-53 -95q-25 -46 -39 -85t-14 -67.5t20 -43.5q20 -14 48 -24 t64 -19.5t82 -18.5l105 -22q59 -12 107.5 -36.5t71.5 -49.5q19 -20 20 -36q0 -23 -43 -23h-8q-51 2 -116 10t-133.5 21.5t-133 34t-114.5 49t-80 65.5q-26 32 -26 73v11q6 70 19.5 112t31 66.5t34 40t26.5 33.5t8 44t-11 41t-24.5 14t-29.5 -31q-14 -31 -29.5 -77t-28 -99.5 t-19.5 -108.5t-7 -102t-2 -76t-8.5 -44.5t-18.5 -20.5t-31 -5q-39 0 -58 35q-14 24 -14 77q0 22 3 50q2 23 2 47.5t-2 51.5q-4 54 -11.5 112.5l-15.5 118t-12 114.5t-5 90t-1 64v54q0 26 -2 63l-10 78q-3 27 -3 52q0 15 1 29q3 39 18.5 66t52.5 31z" />
<glyph unicode="l" horiz-adv-x="563" d="M164 590q2 -49 5 -114.5t24.5 -131t70.5 -124t142 -95.5q47 -14 74.5 -25.5t40.5 -22.5q15 -12 15 -27q0 -9 -4 -19q-6 -12 -21 -23.5t-43 -14.5q-8 -1 -16 -1q-22 0 -51 6q-39 8 -90 35t-103 70.5t-93 117.5t-62 182q-12 64 -12 144q0 56 6 121q14 156 30.5 251t34 146 t37 67.5t41.5 16.5q23 -2 31 -16.5t9 -37t-3 -48t-8 -48.5t-14 -66.5t-19.5 -99t-16.5 -118.5q-6 -49 -6 -98q1 -13 1 -27z" />
<glyph unicode="m" d="M848 -123q-55 20 -102.5 61.5t-80 94.5t-51 113.5t-18.5 119.5v53l-18 -49q-14 -35 -36 -74.5t-48.5 -73.5t-55 -56.5t-57.5 -22.5h-2q-25 0 -50.5 18.5t-54.5 65.5l-4 10l-6 10l-6 -22q-23 -63 -54.5 -97t-49.5 -34q-12 0 -28.5 3t-34 22.5t-32 64.5t-22.5 131l-7 122 q-3 54 -3 95q0 68 12 100.5t45 40.5q2 2 6 2h2q23 0 43 -40q20 -41 21 -89q0 -29 -1 -66.5t-1 -68.5q0 -10 1 -20t1 -17q2 -6 2 -13t10 -11h2h2q10 4 12 10t6 14q12 27 27.5 72t26.5 72q12 37 25.5 58.5t41.5 21.5q31 -2 45.5 -21.5t22.5 -89.5q8 -72 8 -100.5t8 -50.5 q2 -4 11 -9q10 4 12 8.5t6 10.5q12 18 28.5 55t30.5 80q10 29 29.5 77t42.5 95t40 75.5t40 30.5q14 -2 30.5 -4t30 -20.5t22.5 -59t9 -118.5t3 -153t17.5 -137.5t44 -108.5t85.5 -64q98 -31 137 -55.5t37 -38.5v-2v-2q0 -12 -18.5 -29t-65.5 -17q-23 0 -52.5 5.5t-66.5 21.5 z" />
<glyph unicode="n" horiz-adv-x="829" d="M717 -88q-51 2 -108.5 27.5t-108.5 77t-91 129t-55 184.5l-2 18l-8 -16q-18 -47 -45 -104.5t-55.5 -106.5t-55 -82t-47.5 -33q-4 0 -6 2q-23 6 -39 14.5t-26.5 27t-16.5 51t-8 89.5q0 2 -1 14.5t-1 35.5t3 49t11.5 53t22.5 47.5t39 30.5q4 2 8 2q10 0 21.5 -11.5 t19.5 -27.5q8 -18 16 -41l6 -14l5 14l30 98l25 83q12 42 22 67q16 47 42 70q24 22 43 22h3q10 0 25.5 -9t33 -35t34 -70t26.5 -109q10 -68 24.5 -134.5t38 -123t59.5 -96t89 -52.5q102 -23 139 -40t37 -33q0 -10 -4 -21.5t-16 -22t-38 -17.5t-69 -7h-22z" />
<glyph unicode="o" horiz-adv-x="727" d="M389 715q27 -14 76 -50t97 -89.5t84 -122t36 -146.5t-47 -136t-115 -97t-143.5 -58.5t-128.5 -19.5t-93 22.5t-67 56.5t-39 76t-12 80q0 39 4 72t13 64.5t20.5 64.5t27.5 72l27 75q12 36 25.5 66.5t29 52t37.5 29.5q45 16 74 16q39 1 94 -28zM242 143q47 2 99 17.5t96 40 t73 55.5t29 61q0 29 -15.5 66t-36 71.5t-42 62.5t-35.5 40q-23 18 -47.5 31.5t-40.5 15.5q-14 0 -17 -12q-4 -10 -24.5 -51t-49.5 -90q-29 -51 -42 -90t-17 -103v-10q0 -37 12.5 -70t51.5 -35h6z" />
<glyph unicode="p" horiz-adv-x="536" d="M395 471q82 -117 95 -207q5 -32 5 -59q0 -51 -16 -90q-12 -29 -46 -51.5t-74 -39t-78.5 -25.5t-63.5 -11q-6 -18 -3 -60.5t9 -91.5t13.5 -98t11.5 -80q4 -33 4 -63.5t-5 -55t-17.5 -40t-32.5 -15.5q-43 0 -70 69.5t-44 179t-24.5 248t-9.5 277.5q-1 22 -1 43q0 32 2 63 q3 50 9.5 90t15.5 64.5t19 24.5v19q0 75 15 114q16 43 59 43q45 0 96 -64.5t131 -183.5zM332 180q22 13 22 31q0 5 -2 10q-8 25 -20 66q-10 33 -28.5 64.5t-38 58t-35 44t-17.5 21.5l-1 1q-3 0 -6 -20q-3 -24 -4 -63q-1 -19 -1 -40.5t1 -44.5q1 -46 3 -86t4 -66.5t4 -26.5 q1 -1 4 -1q5 0 13 3q13 4 31 12.5t37 18.5z" />
<glyph unicode="q" horiz-adv-x="622" d="M741 -197q15 -17 16 -40q0 -17 -8 -38q-19 -50 -56.5 -100.5t-77.5 -90.5t-54 -50q-23 -15 -55 -15q-12 0 -25 2q-49 7 -73 44q-12 18 -19.5 82.5t-10.5 145.5q-2 49 -2 98q0 33 1 66q2 83 6 138q-16 -16 -40 -28.5t-50.5 -19.5t-53 -10t-49.5 -3t-50 8t-50.5 29.5 t-40 61.5t-16.5 101q0 63 27.5 127t67.5 122.5t84 107.5t75 80q31 33 65.5 48t66.5 18q11 1 20 1q20 0 37 -4q26 -6 40 -18q25 -27 32 -87q6 -47 5 -103v-33q-2 -75 -9 -153.5l-12 -139.5q-4 -59 -8 -144.5t-6 -164.5q-1 -53 -1 -95v-40q1 -56 7 -56t17.5 12t24.5 29l30 36 q16 19 33 35q35 31 60 47.5t52 -6.5zM334 178q23 23 41 63t29.5 89t16.5 101q2 24 2 47q0 28 -3 54q0 2 -2 3q-4 0 -18 -9q-19 -12 -47.5 -38.5t-64.5 -65.5t-69 -88q-18 -29 -33.5 -62.5t-21.5 -64.5q-5 -23 -5 -42q0 -6 1 -11q2 -23 16 -29q12 -5 29 -5h6q20 1 41.5 9 t43.5 20.5t38 28.5z" />
<glyph unicode="r" horiz-adv-x="602" d="M45 229q0 74 5 115l11 90q2 25 13.5 36t25 13t25.5 -2t20 -10q16 -10 26.5 -13t21.5 13q57 106 112 170t106.5 98.5t96.5 48.5l82 27q19 6 35 7q14 0 25 -6q24 -11 30 -32q2 -7 2 -14q0 -14 -8 -30q-12 -24 -49 -35q-88 -29 -152.5 -84.5t-111 -124t-76 -141t-47 -135 t-25.5 -105.5t-10 -52q-6 -25 -16.5 -42t-57.5 -17q-35 0 -52.5 21.5t-24.5 55.5t-7 74v74z" />
<glyph unicode="s" horiz-adv-x="602" d="M416 764q10 1 18 1q34 0 55 -19q27 -24 27 -48q0 -25 -19.5 -50t-58.5 -25q-18 0 -34.5 -10.5t-26.5 -25t-16.5 -29.5t-6.5 -26q0 -23 33 -82t129 -159q18 -25 36 -57q20 -36 20 -72q0 -30 -17 -58q-18 -31 -72 -49q-53 -20 -115.5 -37.5t-123.5 -21.5q-15 -1 -30 -1 q-45 0 -85 9q-53 12 -86 53q-10 15 -10 32q0 8 3 16q7 26 23 42t36 27.5t36 -4.5q16 -14 40 -26.5t79 -12.5q27 0 61.5 7t61 18.5t40 26t1.5 28.5l-47 48q-33 34 -67 79t-60.5 96t-26.5 98q0 94 58.5 158t144.5 74z" />
<glyph unicode="t" horiz-adv-x="446" d="M264 629q31 2 58.5 5t49 2t36 -8t16.5 -22q1 -10 1 -20v-11q-1 -16 -15.5 -32.5t-45 -31.5t-88.5 -30q4 -88 15.5 -177t46.5 -161q33 -68 33 -100q0 -36 -31 -47q-10 -3 -25 -3q-8 0 -17 1q-28 2 -58.5 42t-60 134t-48.5 274q-49 -8 -91 -7q-25 0 -47 2q-60 7 -67 55 q-2 9 -1 16q0 12 3 20q6 14 27.5 25.5t63.5 21.5l112 23q-2 55 -3 120v43q0 43 1 86q2 65 7 125t14.5 106t26 75t40.5 29q25 0 36 -25.5t14 -62.5q2 -22 2 -46q0 -16 -1 -33q-2 -42 -4 -75q-5 -93 -5 -157v-21q1 -69 5 -135z" />
<glyph unicode="u" horiz-adv-x="870" d="M135 662q39 0 59 -35q11 -20 11 -64q0 -32 -6 -78l-13 -114q-5 -53 -5 -99v-15q1 -52 12.5 -87t37.5 -35h3q25 0 45 42q20 44 34.5 103.5t24.5 121t14 96.5q6 35 10.5 73.5t11.5 71.5t21 52q13 18 35 18h4q49 -4 71.5 -54.5t43.5 -154.5q10 -51 23.5 -105.5t32 -100.5 t45 -80t63.5 -42q74 -20 103.5 -31.5t29.5 -40.5q0 -12 -10.5 -28.5t-31 -27.5t-48.5 -14q-7 -1 -14 -1q-24 0 -52 8q-37 10 -70.5 30.5t-63.5 45t-51.5 50.5t-33.5 50q-4 16 -15.5 17.5t-15.5 -23.5q0 -12 -10 -52t-34.5 -82t-66.5 -76t-108 -34t-104.5 48t-59 118 t-22.5 149q0 13 -1 25q0 64 9 117q18 129 40.5 183.5t51.5 54.5z" />
<glyph unicode="v" horiz-adv-x="729" d="M76 584q10 4 20 3q23 0 46 -20q34 -29 57 -125q10 -49 27.5 -98t35 -89t32.5 -65.5t21 -27.5q16 -2 33 16.5t33 54l37 84.5l45 107l50 121l49.5 115.5t45.5 84.5q20 29 37 30q2 0 4 -1q44 -12 44 -69q0 -34 -15 -82q-6 -23 -23.5 -77t-43 -123t-57.5 -143.5t-68.5 -137 t-75.5 -102.5t-80 -40q-43 0 -80 26.5t-65.5 67.5t-49 88t-33.5 88q-12 39 -31.5 88.5t-29.5 94.5q-7 32 -7 59q0 11 1 22q4 36 41 50z" />
<glyph unicode="w" horiz-adv-x="1003" d="M262 668q12 -2 26.5 -10.5t21.5 -26t5 -47t-20 -72.5l-44 -101q-26 -58 -44.5 -114.5t-22.5 -100.5q-1 -7 0 -13q0 -34 19 -48q23 -12 45 11.5t43 50.5q20 29 57 68.5t70 49.5q25 6 51.5 -12t56.5 -57q16 -20 32.5 -36.5t43.5 -27t70 -12.5q11 -1 23 -1q37 0 89 5 q18 2 8 44t-35.5 99.5t-61.5 119t-66 106.5q-37 47 -37 73q0 6 2 11q10 27 39 35q5 1 11 1q26 0 61 -23q43 -28 73 -81l49 -81q33 -54 64 -114.5t51 -118.5q15 -42 15 -73q0 -12 -3 -22q-8 -35 -21 -56.5t-34.5 -34t-50.5 -18.5t-68 -12t-87 -6t-97 10t-94 32.5t-78 61.5 q-6 6 -10 -6t-11 -23q-4 -4 -25.5 -28.5t-54 -48t-74.5 -36.5q-19 -6 -38 -6q-23 0 -47 9q-43 16 -73 51t-42 83q-9 34 -9 73q0 16 2 33q5 58 30 124l47 124q23 60 45 104.5t46 68.5q19 20 41 20q5 0 11 -1z" />
<glyph unicode="x" horiz-adv-x="790" d="M309 557l47 61q18 25 37 46.5t27 27.5q14 10 33.5 16.5t46.5 -14.5q27 -23 35 -48q2 -6 1 -12q0 -21 -20 -48l-36 -47l-42 -58l-49 -69q16 -35 45 -76q25 -35 63 -82t95 -98l89 -81q34 -30 48 -48q13 -16 13 -26q0 -11 -15 -26q-22 -20 -57 -20q-7 0 -16 1q-46 5 -111 58 q-33 27 -73 67l-77 80q-37 40 -64 73l-38 47l-35 -59l-25.5 -44t-20.5 -39.5t-15 -46.5q20 -23 25 -48.5t-15 -43.5q-10 -10 -37 -13t-52.5 6t-44.5 34q-18 22 -18 64q0 51 26 114q24 57 52 104q33 55 74 113l-37 80l-29 64q-14 32 -18 48q-10 35 -9 60.5t21 42.5 q10 8 28 13l10 2q14 0 30 -10q23 -13 50 -51t58 -114z" />
<glyph unicode="y" horiz-adv-x="649" d="M152 606v-6q16 0 27 -28.5t11 -77.5q0 -55 -16 -132q-8 -20 -11 -43.5t-3 -48.5q0 -55 20.5 -103t71.5 -48q29 0 55.5 7t46.5 26q43 39 43 116q0 10 -1 19.5t-1 19.5q-4 37 -7 72t-3 65q0 55 10 91q8 33 27 32q16 0 30.5 -10t28 -35.5t26.5 -73t25 -120.5 q27 -145 56.5 -276.5t29.5 -268.5q0 -70 -23.5 -138.5t-72.5 -122.5t-124.5 -89t-180.5 -35q-53 0 -72.5 22.5t-21.5 51.5q0 10 4 21t8 20q8 18 25 18h2q20 -6 57 -6q51 0 116.5 22.5t115.5 96.5q23 37 33 77.5t10 81.5q0 70 -16.5 133.5t-22.5 110.5l-2 10l-9 -6 q-59 -49 -98 -57t-76 -8q-16 0 -54 16t-77 49q-41 33 -68.5 77t-27.5 108v18q0 66 8 129t23 113q12 49 31.5 77.5t41.5 26.5h5v6z" />
<glyph unicode="z" horiz-adv-x="804" d="M444 713q15 1 29 1q35 0 52 -8q24 -11 46 -30l24.5 -19.5t16.5 -25t-2 -37t-32 -51.5l-74 -86l-100 -117l-103 -118q-51 -56 -86 -91h112q60 0 118.5 -3t109.5 -6t86 -9q33 -6 55.5 -17.5t37 -24t19.5 -24.5t5 -20q0 -16 -29 -26q-17 -6 -55 -6q-25 0 -60 3q-43 2 -98 4 t-116.5 2t-124 -3t-119.5 -7q-6 -1 -12 -1q-23 0 -44 13q-27 16 -43 31q-16 14 -23 44q-2 8 -2 15q0 21 15 37q6 8 34 37l66 71l85 92l90 99l78 92q36 43 57 72q-35 1 -66 1h-30q-42 -1 -91 -7q-12 -2 -23 -2q-32 0 -51 14q-26 18 -36 53q0 8 6 16.5t34.5 15.5t86 14.5 t157.5 11.5z" />
<glyph unicode="&#xa0;" />
<glyph unicode="&#xa3;" horiz-adv-x="843" d="M791 229q25 -23 24 -55q0 -12 -2 -16q-2 -10 -6 -14.5t-12 -8.5q-16 -6 -47 -6q-20 0 -45 2t-54 6q-6 2 -18 2q-41 0 -97.5 -22.5t-113.5 -50.5q-59 -29 -112.5 -60t-88.5 -49q-39 -16 -72 -16q-41 0 -67 20q-27 23 -27 57v14q0 7 4 13q10 35 41 101.5t66 132.5 q16 33 33 61l28 51q23 49 27 49l10 21l-22 -2q-2 -2 -23 -2q-10 -2 -22 -2h-29h-2q-33 0 -68 4t-57 16q-14 6 -19 17q-6 6 -6 16t5.5 22.5t13.5 22.5t17 19.5t16 13.5q0 2 2 2q4 0 8 2q8 4 20 4q35 8 93.5 11t105.5 3h31h8l4 6l37 72l52 109l55 119l48 106l2 4l-16 12l-4 -2 q-14 -10 -32.5 -26.5l-41.5 -38.5l-49 -48l-55 -55q-18 -16 -33.5 -22t-32.5 -6h-2q-29 0 -52.5 15t-31.5 24l-6 6q0 2 -1 3t-1 3v2q0 10 21 45q2 4 22 25q29 31 84 80l113 102l54 48q26 24 48 42l38 32q15 13 21 17q16 12 37 20.5t39 8.5q25 0 45 -15l18 -14q7 -6 11 -16 q10 -16 10 -45q0 -20 -5 -48t-17 -69q-16 -51 -53 -131l-72 -158l-35 -71l-29 -60l-11 -22q-5 -10 -9 -17l-3 -6l-3 -6l-2 -2v-2l-9 -15l19 -2q14 -2 38.5 -2t53.5 -4q29 0 51 -6q12 -2 20.5 -5t12.5 -7q18 -14 26.5 -29.5t8.5 -28.5q-4 -39 -47 -53q-20 -6 -58.5 -8 t-76.5 -2q-23 0 -42.5 1t-33.5 1h-25q-4 0 -6 2h-2h-8l-4 -8q0 -2 -14 -27l-34 -65l-48 -93l-50 -108l-18 -41l37 25q31 20 78 40.5t99 36t105.5 25.5t96.5 10q18 0 26 -2q37 -4 61 -13.5t38 -21.5z" />
<glyph unicode="&#xaa;" horiz-adv-x="950" d="M934 78q29 -8 41 -21q8 -10 8 -22q0 -14 -4 -23q-12 -18 -31 -32q-10 -10 -21 -15l-24 -8q-16 -4 -26 -4q-35 0 -64 9t-45 20q-51 25 -96 60.5t-74 80.5l-10 14l-13 -12q-84 -86 -162.5 -122t-148.5 -36q-59 0 -110.5 23.5t-85.5 64.5q-35 41 -35 105q-2 45 15.5 96 t45.5 102q29 51 67 98.5t79 82.5q63 55 117.5 75.5t95.5 20.5q31 0 53 -7t35 -16l12 -6l8 12q2 8 8 11q2 2 9 2q10 0 32 -13q10 -6 20.5 -14t20.5 -18q10 -6 17 -33q4 -18 6 -43t4 -53v-57q0 -28 4 -52q8 -68 45 -121q27 -39 61.5 -66.5t71.5 -47.5q8 -4 24.5 -14.5 t49.5 -20.5zM522 297q2 14 3 29.5t1 31.5q0 25 -2 49.5t-4 43.5l-4 43l-2 14l-12 2h-21q-61 0 -119 -39q-41 -29 -75.5 -67.5t-59.5 -79.5q-14 -23 -23 -42.5l-18 -39.5q-6 -20 -10 -38t-4 -34q0 -12 2 -23.5t10 -21.5q6 -10 25 -16q16 -4 29 -5q31 0 73 17q61 23 117 59 l25.5 17.5t21.5 17.5q18 14 31 31q6 10 9 23.5t7 27.5z" />
<glyph unicode="&#xad;" horiz-adv-x="731" d="M674 406q20 -16 28 -31q6 -6 8.5 -12.5t2.5 -8.5v-2q0 -4 -4 -12q-8 -8 -29 -14q-10 -2 -25.5 -4.5t-36.5 -2.5q-8 0 -15 1.5t-17 1.5h-25q-37 0 -83 -5l-92 -8q-46 -4 -88 -9t-69 -5q-16 0 -36.5 -1t-42.5 -1q-27 0 -51.5 2t-45.5 10q-23 10 -28 23q-10 12 -13 34v3 q0 27 13 38q12 20 45 27q16 4 33.5 5t33.5 1h2h39q20 0 65.5 1t98.5 2l107 2q53 1 90 1h39v7v-7q29 0 53.5 -10t42.5 -26z" />
<glyph unicode="&#xb2;" horiz-adv-x="870" d="M113 858q37 31 88 45q53 16 92 17q55 0 97 -18.5t71 -47.5t43 -62.5t14 -64.5v-10q-4 -35 -7 -68t-26 -88t-74 -142t-149 -229q0 -2 -2 -4q0 -2 -1 -3t-1 -5q0 -6 4 -10t10 -4q2 -2 9 -2q6 0 13 1t17 3q29 4 66 12t72 12q23 4 77 9.5t117 5.5q45 0 90 -4t80 -17 q31 -8 53 -26q18 -18 19 -43v-6q0 -16 -6 -29q-10 -16 -35 -23q-25 -8 -72 -8q-18 0 -37.5 1t-42.5 3h-26q-53 0 -119 -9t-131 -19l-125 -24q-59 -11 -101 -15h-20q-37 0 -63.5 12t-45.5 31q-16 16 -26 37q-4 10 -6 18t-2 14q0 27 28 72l31 43q16 23 35 45q16 20 57 75.5 t84 123.5q23 35 41.5 68.5t34.5 68.5q33 72 33 121q0 16 -3 30.5t-14 24.5q-4 4 -16 8q-6 2 -19 2q-29 0 -65 -12q-37 -10 -68 -31q-16 -6 -30 -6q-27 -2 -52 19q-25 25 -24 49q0 6 4 18q6 23 29 41z" />
<glyph unicode="&#xb3;" horiz-adv-x="815" d="M289 840q20 6 48 11t69 7v12v-12h14q47 0 92 -10t80 -33t57 -57q10 -18 15.5 -40t5.5 -50q0 -31 -16.5 -63t-37.5 -58q-23 -29 -36 -43q-6 -4 -15 -12l-2 -3l-2 -2l-10 -8l10 -10l2 -2q10 -8 43 -42t68 -87q37 -53 64.5 -118.5t27.5 -135.5t-57 -139 q-43 -51 -108.5 -94.5t-143.5 -75.5q-78 -33 -158 -51.5t-152 -18.5q-29 0 -51 14.5t-39 36.5q-37 47 -37 97q0 16 9 32q8 12 24 19q10 2 27 2q10 0 15 -1t9 -3q10 -8 15 -19q4 -6 4 -14v-2v-8l6 -4q2 0 11.5 -2.5t29.5 -2.5q23 0 59.5 5.5t89.5 23.5q53 16 106.5 43 t100.5 60q23 16 41.5 34.5t32.5 36.5q31 41 31 80q0 41 -20.5 79t-49.5 73t-60.5 63.5t-56.5 46.5q-16 12 -30.5 25.5t-24.5 28.5q-23 27 -22 51q0 23 22 47l78 78q18 20 31 37q8 12 10 16q4 12 4 16q0 6 -2 11q-4 6 -10 10q-4 2 -15 2q-12 0 -27.5 -1t-31.5 -3 q-18 -2 -36.5 -3t-37.5 -1q-35 0 -55 6q-20 2 -33 14q-10 10 -18 26.5t-8 30.5q0 12 6 23q4 8 15.5 16.5t29.5 14.5z" />
<glyph unicode="&#xb9;" horiz-adv-x="237" d="M166 799q6 -33 10 -81t6 -114l8.5 -204.5t4.5 -211.5q0 -94 -7 -149q-2 -14 -4 -24.5t-4 -16.5q-2 -4 -2 -6t-2 -2t-2 -2q-16 2 -32.5 9t-30.5 26q-14 16 -25.5 49.5t-15.5 87.5q-2 29 -6.5 79t-8.5 112.5t-7 131t-3 133.5q0 57 3 108.5t11 90.5q6 37 17 57q6 8 12 13 q2 4 8 4h2q20 0 33 -10q21 -17 35 -80z" />
<glyph unicode="&#xba;" horiz-adv-x="727" d="M389 715q27 -14 76 -50t97 -89.5t84 -122t36 -146.5t-47 -136t-115 -97t-143.5 -58.5t-128.5 -19.5t-93 22.5t-67 56.5t-39 76t-12 80q0 39 4 72t13 64.5t20.5 64.5t27.5 72l27 75q12 36 25.5 66.5t29 52t37.5 29.5q45 16 74 16q39 1 94 -28zM242 143q47 2 99 17.5t96 40 t73 55.5t29 61q0 29 -15.5 66t-36 71.5t-42 62.5t-35.5 40q-23 18 -47.5 31.5t-40.5 15.5q-14 0 -17 -12q-4 -10 -24.5 -51t-49.5 -90q-29 -51 -42 -90t-17 -103v-10q0 -37 12.5 -70t51.5 -35h6z" />
<glyph unicode="&#xf9;" />
<glyph unicode="&#x152;" horiz-adv-x="1925" d="M1841 1061q31 -16 37 -37q4 -8 4 -14q0 -16 -23 -39q-25 -18 -70 -31q-12 -4 -42.5 -11l-71.5 -16l-89 -18l-96 -21l-93 -19q-44 -9 -79 -17q-16 -4 -30.5 -6.5t-24.5 -4.5q-4 -2 -8 -2t-6 -2h-4h-2l-9 -2l-2 -8q-45 -141 -62 -252.5t-17 -195.5q0 -100 20 -158 q10 -27 30.5 -44.5t47.5 -27.5q49 -18 117 -18q53 0 110.5 9t106.5 24q106 29 143 49q12 4 21 4q20 0 43 -19q20 -16 20 -41q0 -16 -11.5 -33.5t-43.5 -35.5q-59 -35 -147.5 -66t-192.5 -31q-66 0 -135.5 15.5t-141.5 54.5q-41 23 -68.5 56.5t-43.5 76.5t-23.5 94.5 t-7.5 104.5q0 66 8 131t18.5 125.5t21.5 110t17 79.5v2v2v17q0 27 12.5 45t30.5 31q10 4 19 8l16 8q14 6 23 6q4 0 26 6q33 6 100 23l141 35l144 35l109 26q39 8 78 8q51 0 80 -16zM1677 569v-2h2q27 0 43 -6q14 -4 22 -16l2 -2q14 -25 15 -41q0 -8 -3 -15.5t-16 -17.5 q-18 -18 -88 -41q-39 -10 -84 -24.5t-91 -26.5t-89 -21.5t-80 -9.5q-35 0 -53 8q-20 6 -33 25q-4 8 -4 14q0 18 24.5 46t86.5 44l74 24l92 28q47 14 95 23t85 9v2zM473 1012l6 -2q31 -10 88.5 -42t122.5 -89q66 -59 125 -144.5t96 -208.5q18 -61 19 -112q0 -86 -42 -147.5 t-102 -108.5q-59 -47 -126.5 -77l-114.5 -52q-31 -14 -71 -22.5t-83 -8.5q-51 0 -104.5 14.5t-100.5 46.5q-47 35 -85 89.5t-60 136.5q-12 61 -12 131q0 137 48 291.5t142 298.5q29 41 67 57t74 16q39 0 70 -16t41 -45zM492 846q-29 8 -54.5 12t-50.5 4q-33 0 -72 -6l-6 -2 l-4 -6q-12 -18 -22 -41q-10 -18 -22 -44l-23 -56q-27 -63 -48.5 -140.5t-21.5 -152.5q0 -55 14 -101q12 -37 33 -61.5t45 -40.5q27 -16 55.5 -21.5t57.5 -5.5q35 0 70.5 7.5t67.5 16.5t57 20l44 20q29 14 58.5 32.5t54.5 41.5q23 23 39 53.5t16 66.5q0 4 -1 10.5t-1 12.5v2 v2q-16 86 -52 152.5t-79 113.5h-2h2q-43 47 -84.5 75t-70.5 36z" />
<glyph unicode="&#x153;" horiz-adv-x="1568" d="M1546 211q2 -4 2 -12q-2 -27 -30.5 -51.5t-76.5 -46t-112.5 -41t-138.5 -37.5t-150 -19q-57 0 -108 13.5t-92 45.5q-41 31 -63.5 82.5t-22.5 124.5q0 96 34.5 183.5t79.5 155t90 111.5t68 56q18 10 45 19.5t55 9.5q41 0 80 -25.5t64 -95.5q16 -53 16 -90q0 -78 -45 -125 t-102 -76q-39 -20 -70 -20q-39 0 -59.5 21.5t-26.5 37.5q-6 14 -6 27q0 20 13 32.5t32.5 19.5t44.5 13t49 15q29 10 40 30.5t11 42.5q0 20 -9 38t-21 22h-7q-16 0 -46.5 -21.5t-64.5 -60.5t-68 -94.5t-56 -118.5q-18 -55 -18 -94q0 -41 14 -69t36.5 -46t50.5 -28.5t54 -14.5 q8 -2 25 -2q39 0 94 11t108.5 24.5t94.5 26t53 16.5q16 4 51 14t60 10q10 0 17 -2t11 -12zM389 715q27 -14 76 -50t97 -89.5t84 -122t36 -146.5t-47 -136t-115 -97t-143.5 -58.5t-128.5 -19.5t-93 22.5t-67 56.5t-39 76t-12 80q0 39 4 72t13 64.5t20.5 64.5t27.5 72l27 75 q12 36 25.5 66.5t29 52t37.5 29.5q45 16 74 16q39 1 94 -28zM242 143q47 2 99 17.5t96 40t73 55.5t29 61q0 29 -15.5 66t-36 71.5t-42 62.5t-35.5 40q-23 18 -47.5 31.5t-40.5 15.5q-14 0 -17 -12q-4 -10 -24.5 -51t-49.5 -90q-29 -51 -42 -90t-17 -103v-10q0 -37 12.5 -70 t51.5 -35h6z" />
<glyph unicode="&#x2000;" horiz-adv-x="706" />
<glyph unicode="&#x2001;" horiz-adv-x="1413" />
<glyph unicode="&#x2002;" horiz-adv-x="706" />
<glyph unicode="&#x2003;" horiz-adv-x="1413" />
<glyph unicode="&#x2004;" horiz-adv-x="471" />
<glyph unicode="&#x2005;" horiz-adv-x="352" />
<glyph unicode="&#x2006;" horiz-adv-x="235" />
<glyph unicode="&#x2007;" horiz-adv-x="235" />
<glyph unicode="&#x2008;" horiz-adv-x="176" />
<glyph unicode="&#x2009;" horiz-adv-x="282" />
<glyph unicode="&#x200a;" horiz-adv-x="77" />
<glyph unicode="&#x2010;" horiz-adv-x="731" d="M674 406q20 -16 28 -31q6 -6 8.5 -12.5t2.5 -8.5v-2q0 -4 -4 -12q-8 -8 -29 -14q-10 -2 -25.5 -4.5t-36.5 -2.5q-8 0 -15 1.5t-17 1.5h-25q-37 0 -83 -5l-92 -8q-46 -4 -88 -9t-69 -5q-16 0 -36.5 -1t-42.5 -1q-27 0 -51.5 2t-45.5 10q-23 10 -28 23q-10 12 -13 34v3 q0 27 13 38q12 20 45 27q16 4 33.5 5t33.5 1h2h39q20 0 65.5 1t98.5 2l107 2q53 1 90 1h39v7v-7q29 0 53.5 -10t42.5 -26z" />
<glyph unicode="&#x2011;" horiz-adv-x="731" d="M674 406q20 -16 28 -31q6 -6 8.5 -12.5t2.5 -8.5v-2q0 -4 -4 -12q-8 -8 -29 -14q-10 -2 -25.5 -4.5t-36.5 -2.5q-8 0 -15 1.5t-17 1.5h-25q-37 0 -83 -5l-92 -8q-46 -4 -88 -9t-69 -5q-16 0 -36.5 -1t-42.5 -1q-27 0 -51.5 2t-45.5 10q-23 10 -28 23q-10 12 -13 34v3 q0 27 13 38q12 20 45 27q16 4 33.5 5t33.5 1h2h39q20 0 65.5 1t98.5 2l107 2q53 1 90 1h39v7v-7q29 0 53.5 -10t42.5 -26z" />
<glyph unicode="&#x2012;" horiz-adv-x="731" d="M674 406q20 -16 28 -31q6 -6 8.5 -12.5t2.5 -8.5v-2q0 -4 -4 -12q-8 -8 -29 -14q-10 -2 -25.5 -4.5t-36.5 -2.5q-8 0 -15 1.5t-17 1.5h-25q-37 0 -83 -5l-92 -8q-46 -4 -88 -9t-69 -5q-16 0 -36.5 -1t-42.5 -1q-27 0 -51.5 2t-45.5 10q-23 10 -28 23q-10 12 -13 34v3 q0 27 13 38q12 20 45 27q16 4 33.5 5t33.5 1h2h39q20 0 65.5 1t98.5 2l107 2q53 1 90 1h39v7v-7q29 0 53.5 -10t42.5 -26z" />
<glyph unicode="&#x2013;" d="M12 293v156h994v-156h-994z" />
<glyph unicode="&#x2014;" horiz-adv-x="2048" d="M12 293v156h2018v-156h-2018z" />
<glyph unicode="&#x2019;" horiz-adv-x="294" d="M25 803q0 35 16 82t39 94t46 87l34 56q23 33 55 33q37 -4 53 -39q4 -12 4 -24q0 -23 -10 -53.5t-24 -59.5l-27 -51q-12 -23 -23 -39l-4 -6q-6 -14 -20 -42t-31 -57q-16 -31 -35 -51q-4 -6 -14 -16l-12 -8q-6 -2 -17 -2q-8 0 -10 2q-10 10 -14 26l-6 -2l6 2q-6 20 -6 66v2 z" />
<glyph unicode="&#x201c;" horiz-adv-x="718" d="M51 717q-14 10 -18 21.5t-4 27.5t4 33.5t10 38.5q10 37 23.5 66.5t35.5 64.5q14 23 28.5 53.5t33.5 58.5q18 29 41 47q25 18 53 19q18 0 29 -4h2q25 -6 37 -21q12 -16 12 -39q0 -16 -6 -34.5t-21 -36.5q-20 -25 -44 -63l-48 -79l-42 -74q-19 -34 -30 -48q-27 -43 -63 -43 q-19 0 -33 12zM518 1163q16 25 43 45q27 16 53 17q14 0 23 -2q29 -10 37 -21q10 -14 10 -31q0 -31 -22 -69q-10 -20 -22 -38l-22 -34l-47 -65l-59 -84l-55 -82q-27 -39 -37 -60q-23 -41 -48.5 -58t-43.5 -17q-14 0 -25 10q-10 10 -10 33q0 14 6 32q12 45 25.5 83t31 75 t39 75t51.5 83q16 23 32.5 52t39.5 56z" />
<glyph unicode="&#x201d;" horiz-adv-x="718" d="M51 717q-14 10 -18 21.5t-4 27.5t4 33.5t10 38.5q10 37 23.5 66.5t35.5 64.5q14 23 28.5 53.5t33.5 58.5q18 29 41 47q25 18 53 19q18 0 29 -4h2q25 -6 37 -21q12 -16 12 -39q0 -16 -6 -34.5t-21 -36.5q-20 -25 -44 -63l-48 -79l-42 -74q-19 -34 -30 -48q-27 -43 -63 -43 q-19 0 -33 12zM518 1163q16 25 43 45q27 16 53 17q14 0 23 -2q29 -10 37 -21q10 -14 10 -31q0 -31 -22 -69q-10 -20 -22 -38l-22 -34l-47 -65l-59 -84l-55 -82q-27 -39 -37 -60q-23 -41 -48.5 -58t-43.5 -17q-14 0 -25 10q-10 10 -10 33q0 14 6 32q12 45 25.5 83t31 75 t39 75t51.5 83q16 23 32.5 52t39.5 56z" />
<glyph unicode="&#x2026;" horiz-adv-x="632" d="M483 -4q-10 8 -16 23.5t-6 43.5v5q0 27 6 40t16 21q16 14 50 14h4q10 0 21 -3t22 -11q10 -8 17 -19.5t7 -31.5q0 -6 -1 -12.5t-3 -14.5q-6 -27 -13 -41t-15 -22q-12 -10 -29 -11h-17q-10 2 -21.5 5.5t-21.5 13.5zM272 -4q-10 8 -16 23.5t-6 43.5v5q0 27 6 40t16 21 q16 14 50 14h4q10 0 21 -3t22 -11q10 -8 17 -19.5t7 -31.5q0 -6 -1 -12.5t-3 -14.5q-6 -27 -13 -41t-15 -22q-12 -10 -29 -11h-17q-10 2 -21.5 5.5t-21.5 13.5zM61 -4q-10 8 -16 23.5t-6 43.5v5q0 27 6 40t16 21q16 14 50 14h4q10 0 21 -3t22 -11q10 -8 17 -19.5t7 -31.5 q0 -6 -1 -12.5t-3 -14.5q-6 -27 -13 -41t-15 -22q-12 -10 -29 -11h-17q-10 2 -21.5 5.5t-21.5 13.5z" />
<glyph unicode="&#x202f;" horiz-adv-x="282" />
<glyph unicode="&#x205f;" horiz-adv-x="352" />
<glyph unicode="&#x2122;" horiz-adv-x="2031" d="M1175 383l2 6q4 37 19.5 84t36.5 88q25 47 43 70q10 14 21 20t17 8h13q20 0 37 -10q23 -14 41 -57q10 -23 19 -52l22 -67l8 -24l16 20q29 35 51.5 88t44.5 113l38 113l28 89q10 35 21.5 68t23.5 59q16 29 31 41q18 14 35 15q23 0 38 -15q29 -25 50 -98q10 -37 18 -90 t12 -123h2h-2q12 -150 42 -257t69 -186t82 -133.5t80 -95.5q35 -37 35 -75q0 -33 -21.5 -53.5t-50.5 -20.5q-25 0 -51 20q-80 68 -134.5 149t-91.5 172t-59.5 189.5t-36.5 200.5l-2 12q-2 12 -3 37t-5 25q-2 0 -4 -10.5t-6 -22.5q-4 -14 -7 -33l-2 -6q-10 -37 -25.5 -82 t-34.5 -94t-44 -97.5t-51 -88.5q-20 -29 -39 -40.5t-35 -11.5q-31 0 -65 29l-35 36q-18 19 -35 44l-17 24l-8 -28q-16 -55 -41.5 -115.5t-54.5 -112.5q-12 -25 -26 -44l-25 -35h-2l-2 -2l-12 -12l-9 -9q-12 -6 -16 -6h-2q-37 6 -62 41q-39 49 -59 143q-10 43 -13 88t-3 86v2 q0 55 6 97q2 18 6 30q4 8 4 11l2 2h2v2q31 31 62 30q35 0 57 -34q12 -18 20.5 -44t10.5 -59v-8q-2 -16 0 -29q0 -27 10 -26q8 0 10 15t6 40zM934 1077q12 -6 18 -18q10 -16 11 -35q0 -12 -5.5 -26.5t-17.5 -28.5q-12 -16 -32.5 -31.5t-51.5 -32.5q-47 -23 -107 -46l-114 -44 l-52 -18l-40 -15q-10 -4 -17.5 -6t-11.5 -4q-6 -2 -10 -2l-10 -4v-8v-2q4 -61 10 -123q4 -53 12 -113.5t19 -109.5q23 -100 49 -179t43 -120q6 -16 11 -33t5 -31v-2q0 -20 -12 -33q-10 -14 -41 -14q-27 0 -51 18q-35 29 -62.5 84.5t-42.5 104.5q-10 31 -23.5 94t-25.5 135 t-22.5 141.5t-10.5 116.5v2v11l2 16h-16q-20 -4 -42 -4h-44q-33 0 -65.5 2t-61.5 10q-63 12 -88 45q-23 29 -23 60q0 27 17 43q8 8 17 13t26 5h2q10 0 26 -4q23 -6 44.5 -8t41.5 -2q35 0 65 5l54 9q45 8 113.5 27.5t140.5 44.5l135 48l101 38q70 29 110 28q15 0 27 -4z" />
<glyph unicode="&#xe000;" horiz-adv-x="730" d="M0 730h730v-730h-730v730z" />
<glyph unicode="&#xfb01;" horiz-adv-x="1071" d="M739 690q25 0 39 -31q7 -15 7 -44.5t-7 -73.5l-10 -71q-6 -42 -6 -87t7 -90t28.5 -81t60.5 -58.5t100 -22.5q86 0 121 -2q37 -2 37 -39q0 -33 -34 -57q-36 -27 -134 -27q-49 0 -102.5 17.5t-98.5 58.5t-74.5 107.5t-29.5 164.5t10 163t24.5 103.5t32 54t29.5 15.5z M827 940q0 -31 -19.5 -51.5t-47.5 -20.5q-29 0 -48.5 15.5t-19.5 46.5q0 29 19.5 54.5t48.5 25.5t48 -20.5t19 -49.5zM575 295q8 -31 8 -37q0 -13 -12 -29q-14 -18 -53 -38.5t-119 -45.5q6 -33 13 -88l12 -113q6 -58 10 -113.5t4 -88.5t-2 -73t-11 -73.5t-26.5 -56 t-46.5 -22.5q-31 0 -86 24.5t-110.5 72.5t-95.5 121q-36 66 -36 153q0 9 1 18q4 98 32.5 160.5t65.5 100.5t70.5 55.5t50.5 23.5q-4 25 -12.5 86t-14.5 140t-9 163q-1 28 -1 54q0 53 4 101q6 71 22.5 116.5t51.5 47.5q18 0 30.5 -7t19.5 -30.5t8 -66.5v-18q0 -39 -3 -97 q-4 -64 -4 -121q0 -72 6 -133q10 -111 33 -196q29 12 61.5 20t62 11t50 -2t26.5 -19zM301 -315q6 51 6 103q0 20 -1 40q-3 74 -11 133q-8 70 -23 137q-31 -10 -55 -35q-23 -23 -40 -61.5t-19 -105.5q0 -5 -1 -11q0 -47 17 -84q18 -41 43 -67.5t49 -38.5q21 -11 32 -11 q2 1 3 1z" />
<glyph unicode="&#xfb02;" horiz-adv-x="1167" d="M768 590q2 -49 5 -114.5t24.5 -131t70.5 -124t142 -95.5q47 -14 74.5 -25.5t40.5 -22.5q15 -12 15 -27q0 -9 -4 -19q-6 -12 -21 -23.5t-43 -14.5q-8 -1 -16 -1q-22 0 -51 6q-39 8 -90 35t-103 70.5t-93 117.5t-62 182q-12 64 -12 144q0 56 6 121q14 156 30.5 251t34 146 t37 67.5t41.5 16.5q23 -2 31 -16.5t9 -37t-3 -48t-8 -48.5t-14 -66.5t-19.5 -99t-16.5 -118.5q-6 -49 -6 -98q1 -13 1 -27zM575 295q8 -31 8 -37q0 -13 -12 -29q-14 -18 -53 -38.5t-119 -45.5q6 -33 13 -88l12 -113q6 -58 10 -113.5t4 -88.5t-2 -73t-11 -73.5t-26.5 -56 t-46.5 -22.5q-31 0 -86 24.5t-110.5 72.5t-95.5 121q-36 66 -36 153q0 9 1 18q4 98 32.5 160.5t65.5 100.5t70.5 55.5t50.5 23.5q-4 25 -12.5 86t-14.5 140t-9 163q-1 28 -1 54q0 53 4 101q6 71 22.5 116.5t51.5 47.5q18 0 30.5 -7t19.5 -30.5t8 -66.5v-18q0 -39 -3 -97 q-4 -64 -4 -121q0 -72 6 -133q10 -111 33 -196q29 12 61.5 20t62 11t50 -2t26.5 -19zM301 -315q6 51 6 103q0 20 -1 40q-3 74 -11 133q-8 70 -23 137q-31 -10 -55 -35q-23 -23 -40 -61.5t-19 -105.5q0 -5 -1 -11q0 -47 17 -84q18 -41 43 -67.5t49 -38.5q21 -11 32 -11 q2 1 3 1z" />
<glyph unicode="&#xfb03;" horiz-adv-x="1675" d="M1343 690q25 0 39 -31q7 -15 7 -44.5t-7 -73.5l-10 -71q-6 -42 -6 -87t7 -90t28.5 -81t60.5 -58.5t100 -22.5q86 0 121 -2q37 -2 37 -39q0 -33 -34 -57q-36 -27 -134 -27q-49 0 -102.5 17.5t-98.5 58.5t-74.5 107.5t-29.5 164.5t10 163t24.5 103.5t32 54t29.5 15.5z M1431 940q0 -31 -19.5 -51.5t-47.5 -20.5q-29 0 -48.5 15.5t-19.5 46.5q0 29 19.5 54.5t48.5 25.5t48 -20.5t19 -49.5zM1179 295q8 -31 8 -37q0 -13 -12 -29q-14 -18 -53 -38.5t-119 -45.5q6 -33 13 -88l12 -113q6 -58 10 -113.5t4 -88.5t-2 -73t-11 -73.5t-26.5 -56 t-46.5 -22.5q-31 0 -86 24.5t-110.5 72.5t-95.5 121q-36 66 -36 153q0 9 1 18q4 98 32.5 160.5t65.5 100.5t70.5 55.5t50.5 23.5q-4 25 -12.5 86t-14.5 140t-9 163q-1 28 -1 54q0 53 4 101q6 71 22.5 116.5t51.5 47.5q18 0 30.5 -7t19.5 -30.5t8 -66.5v-18q0 -39 -3 -97 q-4 -64 -4 -121q0 -72 6 -133q10 -111 33 -196q29 12 61.5 20t62 11t50 -2t26.5 -19zM905 -315q6 51 6 103q0 20 -1 40q-3 74 -11 133q-8 70 -23 137q-31 -10 -55 -35q-23 -23 -40 -61.5t-19 -105.5q0 -5 -1 -11q0 -47 17 -84q18 -41 43 -67.5t49 -38.5q21 -11 32 -11 q2 1 3 1zM575 295q8 -31 8 -37q0 -13 -12 -29q-14 -18 -53 -38.5t-119 -45.5q6 -33 13 -88l12 -113q6 -58 10 -113.5t4 -88.5t-2 -73t-11 -73.5t-26.5 -56t-46.5 -22.5q-31 0 -86 24.5t-110.5 72.5t-95.5 121q-36 66 -36 153q0 9 1 18q4 98 32.5 160.5t65.5 100.5t70.5 55.5 t50.5 23.5q-4 25 -12.5 86t-14.5 140t-9 163q-1 28 -1 54q0 53 4 101q6 71 22.5 116.5t51.5 47.5q18 0 30.5 -7t19.5 -30.5t8 -66.5v-18q0 -39 -3 -97q-4 -64 -4 -121q0 -72 6 -133q10 -111 33 -196q29 12 61.5 20t62 11t50 -2t26.5 -19zM301 -315q6 51 6 103q0 20 -1 40 q-3 74 -11 133q-8 70 -23 137q-31 -10 -55 -35q-23 -23 -40 -61.5t-19 -105.5q0 -5 -1 -11q0 -47 17 -84q18 -41 43 -67.5t49 -38.5q21 -11 32 -11q2 1 3 1z" />
<glyph unicode="&#xfb04;" horiz-adv-x="1771" d="M1372 590q2 -49 5 -114.5t24.5 -131t70.5 -124t142 -95.5q47 -14 74.5 -25.5t40.5 -22.5q15 -12 15 -27q0 -9 -4 -19q-6 -12 -21 -23.5t-43 -14.5q-8 -1 -16 -1q-22 0 -51 6q-39 8 -90 35t-103 70.5t-93 117.5t-62 182q-12 64 -12 144q0 56 6 121q14 156 30.5 251t34 146 t37 67.5t41.5 16.5q23 -2 31 -16.5t9 -37t-3 -48t-8 -48.5t-14 -66.5t-19.5 -99t-16.5 -118.5q-6 -49 -6 -98q1 -13 1 -27zM1179 295q8 -31 8 -37q0 -13 -12 -29q-14 -18 -53 -38.5t-119 -45.5q6 -33 13 -88l12 -113q6 -58 10 -113.5t4 -88.5t-2 -73t-11 -73.5t-26.5 -56 t-46.5 -22.5q-31 0 -86 24.5t-110.5 72.5t-95.5 121q-36 66 -36 153q0 9 1 18q4 98 32.5 160.5t65.5 100.5t70.5 55.5t50.5 23.5q-4 25 -12.5 86t-14.5 140t-9 163q-1 28 -1 54q0 53 4 101q6 71 22.5 116.5t51.5 47.5q18 0 30.5 -7t19.5 -30.5t8 -66.5v-18q0 -39 -3 -97 q-4 -64 -4 -121q0 -72 6 -133q10 -111 33 -196q29 12 61.5 20t62 11t50 -2t26.5 -19zM905 -315q6 51 6 103q0 20 -1 40q-3 74 -11 133q-8 70 -23 137q-31 -10 -55 -35q-23 -23 -40 -61.5t-19 -105.5q0 -5 -1 -11q0 -47 17 -84q18 -41 43 -67.5t49 -38.5q21 -11 32 -11 q2 1 3 1zM575 295q8 -31 8 -37q0 -13 -12 -29q-14 -18 -53 -38.5t-119 -45.5q6 -33 13 -88l12 -113q6 -58 10 -113.5t4 -88.5t-2 -73t-11 -73.5t-26.5 -56t-46.5 -22.5q-31 0 -86 24.5t-110.5 72.5t-95.5 121q-36 66 -36 153q0 9 1 18q4 98 32.5 160.5t65.5 100.5t70.5 55.5 t50.5 23.5q-4 25 -12.5 86t-14.5 140t-9 163q-1 28 -1 54q0 53 4 101q6 71 22.5 116.5t51.5 47.5q18 0 30.5 -7t19.5 -30.5t8 -66.5v-18q0 -39 -3 -97q-4 -64 -4 -121q0 -72 6 -133q10 -111 33 -196q29 12 61.5 20t62 11t50 -2t26.5 -19zM301 -315q6 51 6 103q0 20 -1 40 q-3 74 -11 133q-8 70 -23 137q-31 -10 -55 -35q-23 -23 -40 -61.5t-19 -105.5q0 -5 -1 -11q0 -47 17 -84q18 -41 43 -67.5t49 -38.5q21 -11 32 -11q2 1 3 1z" />
</font>
</defs>
</svg>
